<svg width="425" height="333" viewBox="0 0 425 333" fill="none" xmlns="http://www.w3.org/2000/svg">
<path d="M421.905 148.461C438.526 198.495 358.246 270.16 242.595 308.529C126.943 346.897 19.7157 337.441 3.0947 287.407C-13.5263 237.372 66.7536 165.708 182.405 127.339C298.056 88.97 405.284 98.4266 421.905 148.461Z" fill="#E9E8F3"/>
<path d="M85.5333 234.28L54.0234 249.258V165.684L74.9732 154.279V212.152L107.505 195.641V138.62L129.477 126.875V281.429L107.505 291.301V223.216L85.5333 234.28Z" fill="#D86224"/>
<path d="M85.4784 184.069V126.877L107.45 138.622V195.643L85.4784 184.069Z" fill="#F67618"/>
<path d="M30.4629 238.026V154.281L53.968 165.686V249.261L30.4629 238.026Z" fill="#F67618"/>
<path d="M85.4778 281.431V234.282L107.45 223.218V291.303L85.4778 281.431Z" fill="#F67618"/>
<path d="M107.506 115.812L129.478 126.876L107.506 138.621L85.5345 126.876L107.506 115.812Z" fill="#F99E58"/>
<path d="M54.0246 142.536L74.9744 154.281L54.0246 165.685L30.5195 154.281L54.0246 142.536Z" fill="#F99E58"/>
<path d="M74.9182 190.195L85.4783 184.068L107.45 195.642L74.9182 212.153V190.195Z" fill="#F99E58"/>
<path d="M323.383 118.467L291.873 133.446V49.8712L312.823 38.4669V96.3395L345.355 79.8287V22.8072L367.326 11.0625V165.616L345.355 175.489V107.403L323.383 118.467Z" fill="#4C9487"/>
<path d="M323.328 68.2562V11.0645L345.3 22.8092V79.8307L323.328 68.2562Z" fill="#63C2AE"/>
<path d="M268.312 122.214V38.469L291.818 49.8733V133.448L268.312 122.214Z" fill="#63C2AE"/>
<path d="M323.327 165.618V118.469L345.299 107.405V175.491L323.327 165.618Z" fill="#63C2AE"/>
<path d="M345.356 0L367.328 11.0637L345.356 22.8085L323.384 11.0637L345.356 0Z" fill="#84E7D0"/>
<path d="M291.874 26.7234L312.824 38.4681L291.874 49.8724L268.369 38.4681L291.874 26.7234Z" fill="#84E7D0"/>
<path d="M312.768 74.3829L323.328 68.2552L345.3 79.8297L312.768 96.3404V74.3829Z" fill="#84E7D0"/>
<path d="M228.589 107.764V204.468L207.027 192.553V118.274L228.589 107.764Z" fill="#2269C8"/>
<path d="M228.36 55.7383L250.549 67.4651L170.967 107.764L148.777 94.9707L228.36 55.7383Z" fill="#3A8CED"/>
<path d="M170.967 260.003V107.764L148.777 94.9707V249.129L170.967 260.003Z" fill="#2269C9"/>
<path fill-rule="evenodd" clip-rule="evenodd" d="M170.967 107.763V260.003L250.549 220.557V67.4648L170.967 107.763ZM228.36 204.467L192.698 223.361V200.042V125.148L206.799 118.274L228.36 107.763V204.467Z" fill="#215091"/>
<path d="M228.588 204.468L192.926 223.361V200.042L207.027 192.553L228.588 204.468Z" fill="#3A8CEC"/>
</svg>
