<svg width="176" height="38" viewBox="0 0 176 38" fill="none" xmlns="http://www.w3.org/2000/svg">
<path fill-rule="evenodd" clip-rule="evenodd" d="M36.6891 19.4578C36.7022 19.1699 36.7088 18.8803 36.7088 18.5891C36.7088 18.4854 36.7079 18.3819 36.7063 18.2786C36.7051 18.2083 36.7036 18.1381 36.7017 18.068H41.1617C41.152 17.7096 41.1322 17.3534 41.1027 17.0005C41.0642 16.5403 41.0092 16.0857 40.9384 15.6357H36.4784C36.4658 15.5558 36.4527 15.476 36.4391 15.3965C36.3729 15.0085 36.2947 14.6249 36.2052 14.2459H40.665C40.468 13.4118 40.2154 12.5995 39.9113 11.8137H35.4514C35.3509 11.5536 35.2447 11.2964 35.1331 11.0421C35.1 10.9668 35.0664 10.8918 35.0324 10.8171C34.9724 10.6852 34.911 10.5541 34.848 10.4238H39.3078C39.0917 9.97728 38.8583 9.54024 38.6087 9.11406C38.3841 8.73063 38.1462 8.3567 37.8958 7.9916H33.436C33.4014 7.94126 33.3666 7.8911 33.3316 7.84112L33.3193 7.82329C33.2143 7.67371 33.1075 7.52666 32.9985 7.38092L32.9869 7.36539L32.9728 7.34621L32.9601 7.32925L32.9219 7.27922C32.8994 7.24955 32.8769 7.21995 32.8542 7.19042L32.8509 7.18606C32.8033 7.12362 32.7551 7.06187 32.7068 7.00079L32.6994 6.99129L32.6893 6.97873C32.5889 6.8517 32.4868 6.72603 32.3832 6.60175H36.8431C36.1047 5.71614 35.2862 4.90177 34.3987 4.16953H29.9388C29.6068 3.89536 29.2647 3.63273 28.9139 3.38231C28.4378 3.04232 27.9453 2.72539 27.4378 2.43222H31.8977C29.2191 0.88426 26.1187 0 22.8143 0H18.3544C8.21766 0 0 8.32277 0 18.5891C0 28.8555 8.21766 37.1783 18.3544 37.1783H22.8143C26.1187 37.1783 29.2191 36.294 31.8977 34.7461H27.4378C27.5484 34.6821 27.6582 34.6171 27.7674 34.5509C28.2983 34.229 28.8118 33.8808 29.3061 33.508C29.3726 33.4578 29.4388 33.4072 29.5046 33.3562H33.9645C34.1354 33.2239 34.3039 33.0882 34.4701 32.9497C34.8698 32.6165 35.2554 32.2663 35.6259 31.9006C35.7804 31.7479 35.9322 31.5925 36.0813 31.4343C36.2391 31.2674 36.3942 31.0971 36.5459 30.924H32.0861C32.1443 30.8577 32.2019 30.7909 32.2591 30.7237C32.3943 30.565 32.5269 30.4039 32.6568 30.2406C32.7159 30.1662 32.7745 30.0914 32.8325 30.0161C32.9547 29.8575 33.0745 29.6968 33.1916 29.5342H37.6516C38.205 28.7659 38.7017 27.9529 39.1354 27.1019H34.6755C34.8907 26.6793 35.0907 26.2472 35.2742 25.8062C35.2823 25.7867 35.2904 25.7672 35.2984 25.7477C35.3033 25.7358 35.3082 25.724 35.3131 25.7121H39.773C40.0948 24.9269 40.365 24.1146 40.5794 23.2799H36.1194L36.1309 23.2349C36.1592 23.1235 36.1865 23.0117 36.2128 22.8996C36.2488 22.7463 36.2829 22.5923 36.3151 22.4377C36.327 22.3802 36.3386 22.3227 36.35 22.2651C36.3695 22.1666 36.3882 22.0678 36.4062 21.9688C36.4109 21.9425 36.4157 21.9163 36.4203 21.89H40.8803C40.9618 21.4286 41.0267 20.961 41.0741 20.4886C41.1082 20.1473 41.1334 19.8039 41.1489 19.4578H36.6891ZM18.3544 34.3986C26.9754 34.3986 33.9642 27.3205 33.9642 18.5891C33.9642 9.85782 26.9754 2.77969 18.3544 2.77969C9.73333 2.77969 2.74458 9.85782 2.74458 18.5891C2.74458 27.3205 9.73333 34.3986 18.3544 34.3986Z" fill="#7B61FF"/>
<path d="M14.7446 27.2042V23.7091H12.665V21.9376H14.7446V19.9746H12.665V18.2031H14.7446V10.3271H20.5918C21.8476 10.3271 22.9078 10.5346 23.7722 10.9496C24.653 11.3645 25.3135 11.939 25.7539 12.6732C26.2106 13.4073 26.4389 14.2691 26.4389 15.2586C26.4389 16.2481 26.2106 17.0939 25.7539 17.7961C25.2972 18.4983 24.6448 19.041 23.7967 19.424C22.9486 19.7911 21.921 19.9746 20.7141 19.9746H17.9006V21.9376H21.8395V23.7091H17.9006V27.2042H14.7446ZM17.8517 18.2031H20.2737C21.3339 18.2031 22.1412 17.9717 22.6958 17.5089C23.2666 17.046 23.552 16.3438 23.552 15.4022C23.552 14.4447 23.2666 13.7425 22.6958 13.2956C22.1412 12.8328 21.3339 12.6014 20.2737 12.6014H17.8517V18.2031Z" fill="#2DBE64"/>
<path d="M51.7842 26.2378L53.112 23.1573C53.9087 23.6353 54.7584 24.0071 55.6613 24.2726C56.582 24.5205 57.476 24.6621 58.3435 24.6975C59.2287 24.7152 60.0254 24.6267 60.7335 24.432C61.4594 24.2372 62.0348 23.9451 62.4597 23.5556C62.9023 23.1662 63.1236 22.6704 63.1236 22.0685C63.1236 21.3603 62.8314 20.8381 62.2472 20.5017C61.663 20.1476 60.884 19.9706 59.9103 19.9706H55.3692V16.7308H59.5916C60.4591 16.7308 61.1319 16.5537 61.6099 16.1996C62.1056 15.8456 62.3534 15.3587 62.3534 14.7391C62.3534 14.208 62.1764 13.7831 61.8223 13.4644C61.4682 13.128 60.9814 12.8802 60.3617 12.7208C59.7598 12.5615 59.0782 12.4907 58.3169 12.5084C57.5557 12.5261 56.7678 12.65 55.9535 12.8802C55.1391 13.1103 54.3601 13.429 53.6165 13.8362L52.3153 10.5167C53.5192 9.89704 54.785 9.47215 56.1128 9.242C57.4583 8.99414 58.7507 8.93218 59.99 9.0561C61.2469 9.16233 62.38 9.44559 63.3891 9.90589C64.3982 10.3485 65.2038 10.9327 65.8057 11.6586C66.4076 12.3844 66.7086 13.2431 66.7086 14.2345C66.7086 15.1197 66.4785 15.9075 66.0182 16.598C65.5579 17.2884 64.9117 17.8196 64.0796 18.1913L64.0426 18.2081C64.2294 18.2743 64.4099 18.3483 64.5841 18.4303C65.5047 18.8375 66.2129 19.4129 66.7086 20.1565C67.222 20.8823 67.4787 21.7233 67.4787 22.6793C67.4787 23.5645 67.2397 24.3612 66.7617 25.0693C66.3014 25.7598 65.6641 26.344 64.8497 26.822C64.0353 27.3 63.1059 27.6541 62.0613 27.8843C61.0168 28.1144 59.9014 28.2118 58.7153 28.1764C57.5468 28.141 56.3695 27.9728 55.1833 27.6718C53.9972 27.3531 52.8641 26.8751 51.7842 26.2378Z" fill="#06101A"/>
<path fill-rule="evenodd" clip-rule="evenodd" d="M81.1882 14.925C82.3921 15.9518 82.994 17.554 82.994 19.7316V27.8843H79.1169V26.1089C78.8049 26.6334 78.3801 27.057 77.8422 27.3797C77.0455 27.8577 76.0187 28.0967 74.7617 28.0967C73.6463 28.0967 72.6903 27.9108 71.8937 27.539C71.097 27.1495 70.4862 26.6273 70.0613 25.9722C69.6364 25.3172 69.424 24.5825 69.424 23.7681C69.424 22.9183 69.6275 22.1747 70.0347 21.5374C70.4596 20.9 71.1235 20.4043 72.0264 20.0503C72.9293 19.6785 74.1066 19.4926 75.5584 19.4926H78.8513C78.8513 18.6074 78.5769 17.9169 78.0281 17.4212C77.497 16.9255 76.6737 16.6777 75.5584 16.6777C74.7971 16.6777 74.0447 16.8016 73.3011 17.0494C72.5753 17.2796 71.9556 17.5983 71.4422 18.0055L69.9551 15.1109C70.734 14.562 71.6724 14.1371 72.77 13.8362C73.8676 13.5352 74.983 13.3847 76.116 13.3847C78.2936 13.3847 79.9844 13.8981 81.1882 14.925ZM73.9916 22.3872C74.3634 22.0685 75.0361 21.9092 76.0098 21.9092H78.8513V23.3697C78.6034 24.0071 78.2051 24.4939 77.6563 24.8303C77.1075 25.149 76.4878 25.3083 75.7974 25.3083C75.0715 25.3083 74.4961 25.1578 74.0712 24.8569C73.664 24.5382 73.4605 24.1133 73.4605 23.5822C73.4605 23.1042 73.6375 22.7058 73.9916 22.3872Z" fill="#06101A"/>
<path fill-rule="evenodd" clip-rule="evenodd" d="M89.2749 27.1407C90.5142 27.778 91.9482 28.0967 93.577 28.0967C94.8694 28.0967 96.0113 27.902 97.0027 27.5125C97.9941 27.1053 98.8173 26.5299 99.4724 25.7863L97.2683 23.3963C96.7902 23.8566 96.2591 24.2018 95.6749 24.432C95.1084 24.6621 94.4445 24.7772 93.6832 24.7772C92.8334 24.7772 92.0898 24.6267 91.4525 24.3258C90.8329 24.0071 90.346 23.5556 89.9919 22.9714C89.8087 22.6436 89.6754 22.2895 89.592 21.9092H100.402C100.42 21.7321 100.437 21.5462 100.455 21.3515C100.473 21.1391 100.482 20.9532 100.482 20.7938C100.482 19.2536 100.154 17.9346 99.499 16.837C98.8439 15.7216 97.9499 14.8719 96.8168 14.2876C95.7015 13.6857 94.4445 13.3847 93.0459 13.3847C91.5941 13.3847 90.2929 13.7034 89.1421 14.3407C87.9914 14.9604 87.0796 15.8279 86.4069 16.9432C85.7518 18.0409 85.4243 19.3067 85.4243 20.7407C85.4243 22.157 85.7607 23.4229 86.4334 24.5382C87.1062 25.6359 88.0533 26.5033 89.2749 27.1407ZM89.5442 19.4926C89.6131 19.05 89.7446 18.6517 89.9388 18.2976C90.2398 17.731 90.6558 17.2973 91.1869 16.9963C91.7358 16.6777 92.3643 16.5183 93.0724 16.5183C93.7806 16.5183 94.4002 16.6777 94.9313 16.9963C95.4624 17.2973 95.8785 17.7222 96.1795 18.271C96.3792 18.6353 96.5127 19.0425 96.5799 19.4926H89.5442Z" fill="#06101A"/>
<path d="M111.571 26.5033L107.401 19.308V27.8843H103.657V13.5972H107.986L112.542 21.8573L117.413 13.5972H121.29L121.343 27.8843H117.599V19.339L113.323 26.5033H111.571Z" fill="#06101A"/>
<path d="M132.694 20.0768C133.154 19.9618 133.597 19.8059 134.022 19.6091V13.5972H138.165V27.8843H134.022V22.5654C133.516 22.8148 132.968 23.021 132.375 23.1839C131.667 23.3786 130.888 23.476 130.038 23.476C128.162 23.476 126.719 23.0511 125.71 22.2013C124.701 21.3338 124.196 19.9617 124.196 18.0851V13.5972H128.339V17.8196C128.339 18.7048 128.569 19.3421 129.029 19.7316C129.49 20.1034 130.136 20.2893 130.968 20.2893C131.57 20.2893 132.145 20.2184 132.694 20.0768Z" fill="#06101A"/>
<path d="M152.898 19.3864L145.966 27.8843H142.142V13.5972H146.259V22.0951L153.216 13.5972H157.014V27.8843H152.898V19.3864Z" fill="#06101A"/>
<path d="M167.29 22.4668L171.114 27.8843H176L170.663 20.4524L175.655 13.5972H171.247L167.376 19.1474H165.139V13.5972H160.996V27.8843H165.139V22.4668H167.29Z" fill="#06101A"/>
</svg>
