<svg width="128" height="131" viewBox="0 0 128 131" fill="none" xmlns="http://www.w3.org/2000/svg">
<path d="M21.4814 47.6202C28.1894 51.5012 39.7031 58.1627 40.9167 58.2995C40.8589 58.315 40.8881 68.2116 40.9174 78.1814C40.9473 88.3038 40.9773 98.5019 40.9167 98.5094C40.8694 100.482 41.19 102.406 41.6528 104.309C43.9154 113.629 52.3905 120.306 61.904 120.334C66.4585 120.347 70.7871 119.287 74.9991 117.658C81.871 115.001 88.0633 111.122 94.0298 106.841C102.935 100.454 111.045 93.2369 117.338 84.1299C123.057 75.8531 127.037 66.893 127.857 56.7007C128.509 48.5928 126.926 40.955 123.089 33.813C118.391 25.066 111.537 18.3207 103.232 13.1639C88.8267 4.22041 73.0498 0.31611 56.1616 0.929485C50.7126 1.12599 45.3729 2.01483 40.1935 3.74109C27.9218 7.83087 19.1024 15.6266 14.7373 28.1016C13.5368 31.534 12.5603 35.0434 12.8518 38.7567C13.0667 41.5096 14.2673 43.649 16.7778 44.9272C17.1853 45.1346 19.0065 46.1883 21.4814 47.6202Z" fill="#7B61FF"/>
<path d="M70.9523 27.3777C73.4638 25.9545 76.8118 25.2178 80.2079 25.2178C83.6039 25.2178 86.9519 25.9545 89.4634 27.3777L123.55 46.6934C126.069 48.1208 127.116 49.864 127.116 51.4162C127.116 52.9684 126.069 54.7116 123.55 56.139L57.0477 93.8237C54.5362 95.2469 51.1882 95.9835 47.7922 95.9835C44.3961 95.9835 41.0481 95.2469 38.5366 93.8236L4.44998 74.5079C1.93104 73.0805 0.883793 71.3373 0.883794 69.7851C0.883795 68.2329 1.93104 66.4897 4.44999 65.0623L70.9523 27.3777Z" fill="url(#paint0_linear_3860_2736)" stroke="#06101A" stroke-width="1.76758"/>
<rect x="-5.26781e-08" y="0.883792" width="10.6213" height="10.6213" rx="2.65138" transform="matrix(0.866025 0.5 -0.866025 0.5 80.8987 32.3618)" fill="#7B61FF" stroke="#06101A" stroke-width="1.76758"/>
<rect x="-5.26781e-08" y="0.883792" width="10.6213" height="10.6213" rx="2.65138" transform="matrix(0.866025 0.5 -0.866025 0.5 59.4392 44.7505)" fill="#7B61FF" stroke="#06101A" stroke-width="1.76758"/>
<rect x="-5.26781e-08" y="0.883792" width="10.6213" height="10.6213" rx="2.65138" transform="matrix(0.866025 0.5 -0.866025 0.5 37.9817 57.1411)" fill="#7B61FF" stroke="#06101A" stroke-width="1.76758"/>
<rect x="-5.26781e-08" y="0.883792" width="18.7516" height="3.65257" rx="1.82628" transform="matrix(0.866025 0.5 -0.866025 0.5 92.2986 42.4302)" fill="#7B61FF" stroke="#06101A" stroke-width="1.76758"/>
<rect x="-5.26781e-08" y="0.883792" width="18.7516" height="3.65257" rx="1.82628" transform="matrix(0.866025 0.5 -0.866025 0.5 70.8391 54.813)" fill="#7B61FF" stroke="#06101A" stroke-width="1.76758"/>
<rect x="-5.26781e-08" y="0.883792" width="18.7516" height="3.65257" rx="1.82628" transform="matrix(0.866025 0.5 -0.866025 0.5 49.3806 67.2095)" fill="#7B61FF" stroke="#06101A" stroke-width="1.76758"/>
<defs>
<linearGradient id="paint0_linear_3860_2736" x1="3.16489e-06" y1="96.8673" x2="128" y2="96.8673" gradientUnits="userSpaceOnUse">
<stop stop-color="#2DBE64"/>
<stop offset="1" stop-color="#90BE2D"/>
</linearGradient>
</defs>
</svg>
