<svg width="129" height="128" viewBox="0 0 129 128" fill="none" xmlns="http://www.w3.org/2000/svg">
<g clip-path="url(#clip0_3860_2761)">
<path d="M22.7303 51.8996C26.3714 49.5431 29.9493 47.0963 33.6663 44.8484C41.6139 40.0402 49.3536 34.9528 57.1963 30.0025C57.8435 29.593 58.3606 29.6515 59.0223 29.9206C68.06 33.6008 77.0941 37.2926 86.1698 40.8942C87.4571 41.4056 87.909 41.9822 87.8458 43.2691C87.721 45.7961 87.7807 48.333 87.8277 50.8667C87.8404 51.572 87.5854 52.0165 86.9563 52.3675C86.3922 52.6817 85.8697 53.0594 85.1881 53.5006C86.3597 53.982 87.4119 54.4666 88.5075 54.846C89.218 55.0917 89.4367 55.4426 89.4241 56.1463C89.3716 59.0409 89.4078 61.9356 89.3879 64.8302C89.3861 65.2413 89.5036 65.3968 89.9664 65.4536C91.9154 65.6993 93.8372 66.0686 95.6686 66.7555C97.3247 67.3772 98.8505 68.1844 100.067 69.4262C101.029 70.4072 101.588 71.5354 101.561 72.8807C101.552 73.3537 101.573 73.8283 101.539 74.2996C101.456 75.4812 101.561 76.5692 102.439 77.567C103.041 78.2505 103.206 79.1681 103.191 80.0789C103.17 81.4711 103.072 82.8699 103.191 84.2521C103.43 86.9896 102.267 89.0537 99.9298 90.6347C99.3441 90.8386 99.1651 91.2196 99.1976 91.7946C99.2501 92.7355 99.1868 93.6797 99.2175 94.6223C99.27 96.1883 98.6083 97.4669 97.4657 98.5799C95.6505 100.346 93.3563 101.324 90.8849 101.989C89.632 102.327 88.3502 102.566 87.081 102.85C86.7863 102.865 86.4917 102.88 86.197 102.895C85.9312 102.845 85.6727 102.832 85.4376 102.989C81.8471 103.094 78.2837 102.975 74.8107 101.998C72.8727 101.451 71.0286 100.724 69.4069 99.5794C67.4526 98.1972 66.2666 96.4574 66.4727 94.0825C66.4944 93.8352 66.4582 93.5828 66.4474 93.3338C66.4564 92.3327 66.4473 91.3299 66.4781 90.3288C66.4998 89.5818 66.375 88.8297 66.5685 88.086C67.0187 86.3596 68.2408 85.1596 69.7468 84.1886C70.2584 83.8577 70.4103 83.5184 70.4374 82.9669C70.5007 81.6967 70.1626 80.4232 70.4555 79.1597C70.5875 78.5932 70.7863 78.04 70.9997 77.3347C70.6815 77.5269 70.5061 77.6272 70.338 77.7358C62.2892 82.9117 54.2385 88.0826 46.1988 93.2686C44.7976 94.1728 43.3278 94.9884 42.0333 96.0279C39.3595 97.7259 36.6313 99.3537 34.037 101.149C32.6485 102.108 31.5457 102.265 29.8697 101.57C21.0074 97.8947 12.0691 94.3767 3.14883 90.8219C2.52148 90.5712 2.20148 90.2737 2.2051 89.6002C2.21956 86.4548 2.18883 83.3095 2.17075 80.1641C2.16894 79.7998 2.32804 79.5374 2.6625 79.3402C3.19222 79.0277 3.70928 78.6951 4.32216 78.314C3.326 77.9079 2.41843 77.4918 1.47651 77.1675C0.831087 76.9453 0.641258 76.5943 0.644873 75.9793C0.66476 72.8339 0.648488 69.6869 0.617753 66.5416C0.612329 66.0419 0.892557 65.8229 1.29211 65.5689C8.40804 61.0632 15.5149 56.5424 22.6218 52.0232C22.667 51.9948 22.6923 51.9397 22.7267 51.8979L22.7303 51.8996ZM71.9163 89.291L71.9217 89.2993C71.9289 89.169 71.853 89.0921 71.7319 89.0436C71.4643 88.6609 71.1967 88.2782 70.9274 87.8955C70.6652 87.1969 70.4012 86.4966 70.4157 85.7211C68.1341 86.8125 67.3857 89.2876 68.7452 91.1728C69.6926 92.4865 71.0702 93.3472 72.5924 93.9639C78.1608 96.2201 83.9118 96.3738 89.7531 95.0669C91.6442 94.6441 93.434 93.9772 94.9979 92.8608C94.1988 92.9745 93.4232 93.1566 92.6404 93.3071C89.2505 93.9605 85.8336 93.9087 82.4094 93.6146C79.9072 93.165 77.4467 92.5951 75.1687 91.4937L74.9861 91.462L74.9915 91.467C74.0008 90.8302 73.0046 90.2001 72.0989 89.4598V89.4648C72.088 89.3612 72.0446 89.286 71.9145 89.2926L71.9163 89.291ZM99.0205 76.9302C98.7186 77.1375 98.4166 77.343 98.1129 77.5503C97.5579 77.8277 97.0046 78.1051 96.4496 78.3826C96.1477 78.4762 95.8295 78.533 95.5836 78.7419C94.9725 78.889 94.3579 79.0294 93.792 79.3001L92.8699 79.4639C92.333 79.5742 91.7942 79.6862 91.2573 79.7965C90.921 79.7163 90.6426 79.9051 90.3353 79.9653C89.7242 79.8767 89.1348 79.9853 88.549 80.1291H86.0162C85.7088 80.1324 85.4015 80.1324 85.0923 80.1341C84.5048 80.0238 83.9208 79.8616 83.3097 79.9686C83.0024 79.9118 82.6932 79.855 82.3859 79.7965C81.9158 79.7229 81.4458 79.6494 80.9757 79.5759C80.5997 79.4856 80.2254 79.3937 79.8494 79.3034C79.251 79.1313 78.6544 78.9575 78.0559 78.7853C77.7992 78.5798 77.4901 78.4812 77.1628 78.4227C76.6168 78.1503 76.069 77.8778 75.5231 77.6054C75.2446 77.4032 74.9988 77.1559 74.6372 77.074C74.3208 76.7681 74.0044 76.4639 73.5759 76.0495C73.4928 77.5469 73.359 78.8589 74.4672 79.9252C74.7258 80.3045 75.062 80.6087 75.4887 80.826C75.9588 81.2755 76.5174 81.6014 77.1466 81.8271C77.4539 81.9674 77.7631 82.1078 78.0704 82.2482C78.5766 82.4972 79.1009 82.7045 79.6704 82.7947C80.0374 82.895 80.4062 82.997 80.7732 83.0972C81.3102 83.2059 81.8453 83.3162 82.3823 83.4248C82.695 83.4699 83.0078 83.5151 83.3206 83.5602C83.6062 83.5852 83.8901 83.612 84.1757 83.6371C84.7723 83.8777 85.3997 83.7457 86.0162 83.7624C86.5531 83.7624 87.0901 83.7624 87.6252 83.7624C88.0718 83.754 88.5255 83.8443 88.9594 83.6705C89.4114 83.6254 89.8634 83.5819 90.3154 83.5368C90.7529 83.4131 91.241 83.5602 91.6569 83.3212C92.06 83.2426 92.4614 83.1641 92.8645 83.0855C93.1683 82.9802 93.5226 83.0036 93.7848 82.7881C94.4501 82.7145 95.0539 82.4872 95.6144 82.1546C95.9452 82.0995 96.2489 81.9942 96.493 81.7702C97.1149 81.553 97.6465 81.2054 98.1255 80.7842C98.5414 80.5001 98.9228 80.1842 99.1976 79.7714C100.174 78.7386 100.026 77.5302 99.9316 76.1982C99.5502 76.5041 99.2862 76.718 99.0205 76.9302ZM100.449 84.598C100.152 84.8053 99.8557 85.0125 99.5592 85.2198C98.8813 85.5557 98.2033 85.8933 97.5271 86.2292C97.1818 86.3663 96.8347 86.5033 96.4894 86.6403L94.6959 87.1568C94.3289 87.2637 93.9637 87.3707 93.5967 87.4776C92.9405 87.5946 92.2824 87.71 91.6261 87.8269C91.2916 87.7384 91.0132 87.9439 90.7041 87.979C90.0297 87.8721 89.3897 88.1178 88.7298 88.1528C88.4225 88.1528 88.1151 88.1545 87.8078 88.1562C87.1515 88.1562 86.4953 88.1562 85.839 88.1562C85.5317 88.1562 85.2243 88.1545 84.917 88.1528C84.2534 88.1528 83.6189 87.8721 82.9445 87.984C82.6372 87.9322 82.328 87.8788 82.0207 87.8269C81.3644 87.7116 80.7063 87.5963 80.0501 87.481C79.6993 87.4024 79.3504 87.3239 78.9997 87.2453C78.385 87.0465 77.7721 86.8459 77.1574 86.647L76.0835 86.2743C75.4164 85.9434 74.7493 85.6125 74.0822 85.2799C73.7784 85.0643 73.4729 84.8487 73.1692 84.6348C72.7805 84.3156 72.3918 83.9964 71.938 83.622C71.8801 85.2883 71.6885 86.8643 72.9938 88.1378C73.2812 88.4938 73.6085 88.813 74.0351 89.0319C74.5378 89.55 75.1705 89.896 75.8449 90.1834C76.2842 90.384 76.7235 90.5829 77.1628 90.7834C77.7432 91.0291 78.3307 91.2581 78.9599 91.3784C79.3197 91.4687 79.6795 91.5589 80.041 91.6492C80.681 91.8748 81.3409 92.0152 82.0297 92.0118C82.3045 92.204 82.6263 92.1338 82.9337 92.1522C83.5827 92.3645 84.2517 92.3477 84.9224 92.311C85.2785 92.4079 85.6365 92.4931 86.0144 92.4296C86.5531 92.4296 87.0937 92.4296 87.6324 92.4296C87.9958 92.3912 88.361 92.3511 88.7244 92.3126C89.3951 92.3494 90.0623 92.3477 90.7095 92.1438C91.0186 92.1338 91.3441 92.1973 91.6171 91.9968C92.3077 92.0168 92.9531 91.823 93.5985 91.6341C93.9764 91.5806 94.3524 91.5154 94.6869 91.3316C95.3432 91.2213 95.9561 91.0007 96.5346 90.6982C96.9703 90.5645 97.3988 90.4141 97.7694 90.155C98.4329 89.8458 99.0765 89.5133 99.5755 88.9885C99.9389 88.7746 100.244 88.5088 100.472 88.1679C101.911 86.8994 101.599 85.2916 101.591 83.7424C101.515 83.7006 101.441 83.6588 101.365 83.6153C101.058 83.9446 100.752 84.2738 100.445 84.6031L100.449 84.598ZM81.8272 101.526C81.9249 101.675 82.0659 101.663 82.2159 101.617C82.4546 101.617 82.6914 101.617 82.9301 101.617C82.9933 101.617 83.0584 101.617 83.1217 101.617H83.6532C83.7292 101.602 83.8051 101.587 83.881 101.572L83.9136 101.56L84.9242 101.498C85.5371 101.531 86.1427 101.498 86.7339 101.331C87.1045 101.339 87.4697 101.322 87.8132 101.172C88.5256 101.142 89.2053 100.968 89.8724 100.751C90.1454 100.651 90.4763 100.721 90.7095 100.509C91.42 100.402 92.0763 100.159 92.6964 99.8284C93.0761 99.693 93.4792 99.6011 93.7992 99.347C94.4645 99.0445 95.1118 98.7153 95.6162 98.1922C95.9759 97.9799 96.3303 97.7627 96.5075 97.3783C97.9791 96.1131 97.7459 94.492 97.6935 92.9093C97.6031 92.8458 97.5145 92.7839 97.4241 92.7204C97.1113 93.0814 96.7985 93.4408 96.484 93.8018C96.1278 94.029 95.7735 94.258 95.4173 94.4853C94.8026 94.8045 94.1861 95.1237 93.5714 95.4429C93.2568 95.5115 92.9423 95.5783 92.6928 95.7889C92.0347 95.9761 91.3784 96.1633 90.7204 96.3488C90.4383 96.5126 90.046 96.3972 89.8019 96.6563C89.1185 96.658 88.4731 96.8485 87.8205 97.0022C87.4336 96.922 87.0883 97.0775 86.7285 97.1644C86.1138 97.0925 85.519 97.2078 84.9242 97.3265C84.5608 97.3298 84.1974 97.3348 83.834 97.3382L81.8634 97.3499L80.9396 97.3382C80.2851 97.2546 79.6397 97.0691 78.9653 97.171C78.658 97.1176 78.3795 96.9254 78.0433 97.0123C77.387 96.9003 76.7289 96.7867 76.0727 96.6747C75.7961 96.5209 75.4923 96.4674 75.1759 96.4624C74.5106 96.2535 73.8435 96.0446 73.1782 95.8357C72.8727 95.7237 72.5653 95.6117 72.2598 95.4998C71.5999 95.1622 70.9418 94.8246 70.2819 94.487C69.9836 94.3115 69.6853 94.136 69.387 93.9605C68.9802 93.5477 68.5644 93.1449 67.9768 92.8591C67.9443 94.5973 67.7599 96.2953 69.3617 97.5337C69.5244 97.9331 69.9294 98.1053 70.262 98.346C70.8514 98.844 71.5005 99.2501 72.267 99.4824C72.5039 99.7114 72.8166 99.7983 73.1312 99.8835C73.7025 100.188 74.3154 100.387 74.9554 100.522C75.3278 100.619 75.7002 100.714 76.0727 100.811C76.7145 101.022 77.3671 101.184 78.0559 101.175C78.338 101.333 78.6471 101.336 78.9617 101.321C79.6071 101.525 80.276 101.521 80.9468 101.5L81.8218 101.526H81.8272ZM53.5172 62.4587C52.3547 61.9907 51.2844 61.5578 50.2123 61.1267C42.5215 58.0398 34.827 54.963 27.147 51.8561C26.4022 51.5553 25.8634 51.6221 25.1927 52.0516C18.5468 56.3217 11.8756 60.5584 5.21165 64.8051C4.50837 65.253 3.81233 65.7093 3.03493 66.2123C3.30431 66.341 3.45617 66.4246 3.61527 66.4881C12.1594 69.9527 20.7072 73.4072 29.2406 76.8968C29.9945 77.206 30.5061 77.1358 31.1732 76.7063C36.3258 73.3838 41.509 70.1014 46.6815 66.8056C48.9323 65.3734 51.1832 63.9428 53.5172 62.4587ZM85.2677 42.2663C85.1303 41.9655 84.8555 41.9521 84.6512 41.8686C76.0419 38.3656 67.429 34.8743 58.8234 31.3629C58.3063 31.1523 57.9556 31.2326 57.5217 31.51C53.1194 34.3278 48.7045 37.1288 44.2932 39.9366C42.1219 41.3187 39.9506 42.7009 37.6763 44.1482C38.0541 44.3203 38.3127 44.449 38.5802 44.5576C47.1967 48.0473 55.815 51.5319 64.4243 55.0349C64.8709 55.217 65.1439 55.0833 65.4765 54.8727C69.8806 52.0667 74.2919 49.2673 78.6978 46.4629C80.8926 45.0657 83.0837 43.6635 85.2713 42.2663H85.2677ZM63.2564 56.1412C63.0901 56.0443 63.0177 55.9892 62.9364 55.9574C54.1391 52.3842 45.34 48.816 36.5463 45.2312C36.0745 45.039 35.7653 45.1961 35.4074 45.425C33.0083 46.9609 30.6019 48.4851 28.201 50.0194C27.9949 50.1514 27.7183 50.2249 27.6135 50.5508C29.3509 51.2478 31.0846 51.9413 32.8166 52.6349C39.9543 55.4894 47.0937 58.344 54.2313 61.1985C54.5911 61.3423 54.8948 61.4709 55.307 61.2035C57.9176 59.5139 60.5536 57.8576 63.2564 56.1412ZM29.4268 86.7724C29.4268 84.2036 29.4069 81.7602 29.4431 79.3151C29.4521 78.7569 29.2713 78.4945 28.7091 78.2689C23.5529 76.1999 18.413 74.0957 13.2677 72.005C9.96464 70.6646 6.65798 69.336 3.35674 67.9906C2.15809 67.5026 2.16352 67.4875 2.16352 68.6491C2.16352 70.7933 2.19064 72.9376 2.14725 75.0818C2.13459 75.6818 2.35696 75.9642 2.93369 76.1932C10.084 79.0377 17.2252 81.9023 24.3701 84.7618C26.0189 85.422 27.6695 86.0738 29.4268 86.7724ZM3.78159 81.1485C3.78159 83.6538 3.84126 86.0203 3.75086 88.3801C3.71651 89.2743 4.08894 89.6486 4.90069 89.9712C13.3726 93.3405 21.8336 96.7298 30.291 100.131C30.9364 100.39 31.0539 100.229 31.0485 99.6462C31.0232 97.5588 30.9726 95.4697 31.0684 93.3856C31.1118 92.438 30.7375 92.0335 29.8444 91.6792C24.1043 89.3979 18.3877 87.0648 12.6639 84.7485C9.75131 83.5685 6.83877 82.3886 3.78159 81.1485ZM54.2042 63.8208C53.9005 63.9912 53.7974 64.0447 53.6998 64.1065C46.808 68.4819 39.9543 72.9075 32.9992 77.196C31.4535 78.1486 30.7393 79.1547 31.0431 80.8293C31.1461 81.3976 31.0593 81.9959 31.0593 82.5808V86.403C31.5276 86.3896 31.7536 86.1406 32.0139 85.9752C38.9057 81.5496 45.7757 77.0974 52.6946 72.7103C53.8227 71.995 54.4501 71.2546 54.2241 69.9527C54.1156 69.3293 54.206 68.6741 54.206 68.034C54.206 66.682 54.206 65.3299 54.206 63.8191L54.2042 63.8208ZM55.8168 77.4216C54.7213 78.1168 53.7613 78.7235 52.8049 79.3302C46.338 83.4365 39.8765 87.5478 33.3988 91.6408C32.8691 91.9751 32.6485 92.3394 32.6593 92.9394C32.6973 94.9984 32.6738 97.0574 32.6738 99.1164C32.6738 99.4289 32.6738 99.7415 32.6738 100.168C33.0137 99.9738 33.1927 99.8818 33.3626 99.7732C35.6822 98.2824 38.0017 96.79 40.3213 95.2975C45.2804 92.1071 50.2412 88.9183 55.1985 85.7245C55.4878 85.5373 55.8205 85.3735 55.8205 84.9657C55.8168 82.5023 55.8187 80.0388 55.8187 77.4199L55.8168 77.4216ZM86.2187 43.6234C85.8064 43.6 85.6238 43.8106 85.4105 43.9476C78.9906 48.0272 72.578 52.1151 66.149 56.183C65.7097 56.4621 65.594 56.7763 65.5976 57.2276C65.6139 59.2598 65.5994 61.2921 65.6085 63.3261C65.6085 63.5951 65.4566 63.9762 65.7061 64.1099C66.0315 64.2837 66.2828 63.911 66.5359 63.7489C72.8383 59.7077 79.1316 55.6532 85.4358 51.6154C86.0053 51.2511 86.2928 50.8517 86.2331 50.1815C86.1626 49.3793 86.2169 48.567 86.2169 47.7598L86.2187 43.6234ZM87.8259 57.124C87.618 57.2192 87.5348 57.246 87.4643 57.2894C81.0932 61.3372 74.7348 65.4034 68.3384 69.4162C67.4959 69.9443 67.1488 70.4741 67.185 71.4217C67.2681 73.5476 67.2103 75.6801 67.2103 77.9731C68.5626 77.1057 69.7088 76.2417 70.987 75.5949C72.0464 75.0584 72.2272 74.308 72.0446 73.3888C71.7933 72.122 72.2128 71.0323 72.9667 70.0329C74.554 67.9271 76.9712 67.0012 79.4788 66.2491C81.7441 65.5689 84.1016 65.3851 86.4645 65.2547C87.1714 65.2163 87.815 65.0575 87.8205 64.2369C87.8331 61.8988 87.8241 59.5623 87.8241 57.1223L87.8259 57.124ZM4.71809 79.8533C4.82657 79.9201 4.91516 79.9937 5.01821 80.0355C13.7866 83.5869 22.5567 87.1334 31.3215 90.6932C31.7066 90.8503 31.9886 90.8152 32.3158 90.5979C33.0715 90.0949 33.8471 89.6152 34.6137 89.1272C41.2035 84.9356 47.7897 80.7407 54.3904 76.5625C54.9581 76.2032 55.0901 76.006 54.3344 75.7553C53.7414 75.5581 53.1592 75.3241 52.5933 75.0668C52.1558 74.8679 51.8322 74.9464 51.4399 75.2005C44.6584 79.5859 37.8625 83.9546 31.0774 88.3367C30.611 88.6375 30.2006 88.6927 29.66 88.4754C22.1337 85.4437 14.5911 82.4505 7.08103 79.3837C6.04871 78.9625 5.39425 79.1714 4.71629 79.855L4.71809 79.8533ZM87.0792 78.6249C88.8618 78.7068 90.9084 78.4294 92.917 77.933C95.1696 77.3765 97.3102 76.5926 98.9265 74.9414C100.255 73.5843 100.302 72.0952 99.1 70.6496C98.3877 69.7922 97.4602 69.1772 96.4225 68.7159C91.2971 66.4329 85.9746 66.2458 80.5382 67.5126C78.3326 68.0274 76.2661 68.8262 74.6697 70.4139C73.2559 71.8195 73.18 73.337 74.4817 74.8294C75.3097 75.7771 76.3999 76.4255 77.5823 76.9319C80.4948 78.182 83.5809 78.6617 87.0792 78.6249ZM63.3558 67.5427C64.2706 67.9187 65.095 68.2363 65.8959 68.5973C66.3606 68.8062 66.6987 68.736 67.1253 68.4636C73.2053 64.5829 79.307 60.7272 85.3888 56.8499C85.8932 56.529 86.4772 56.2816 86.8984 55.7719C86.0559 55.4243 85.2442 55.1268 84.4722 54.7574C83.9172 54.4917 83.5014 54.5519 82.9933 54.8828C79.2799 57.2978 75.5448 59.6827 71.8186 62.081C69.0327 63.8742 66.2521 65.6742 63.3558 67.5427ZM65.7386 70.9538C62.9002 72.7554 60.2535 74.4384 57.6049 76.1147C57.3843 76.255 57.2885 76.4238 57.2885 76.6695C57.2921 79.1046 57.2921 81.5396 57.2921 83.9747C57.4349 83.9747 57.509 83.9964 57.547 83.9713C60.1685 82.2967 62.7863 80.6187 65.406 78.9424C65.6175 78.8071 65.7423 78.6516 65.7423 78.3976C65.735 75.986 65.7386 73.5743 65.7386 70.9538ZM55.7626 70.4841C58.5667 68.6758 61.1936 66.9761 63.8295 65.2898C64.1694 65.0725 64.1423 64.7851 64.1423 64.4809C64.1423 62.7294 64.1423 60.9779 64.1423 59.2281C64.1423 58.6381 64.1423 58.0482 64.1423 57.3212C61.331 59.1011 58.686 60.7774 56.041 62.4537C55.8205 62.594 55.759 62.7929 55.759 63.0302C55.7626 65.4469 55.7608 67.8619 55.7608 70.4858L55.7626 70.4841ZM101.456 79.0076C99.8358 81.6449 98.4781 82.8014 95.4914 83.7774C89.5488 85.7211 83.5827 85.7328 77.6763 83.627C75.232 82.7546 73.1511 81.431 72.1622 78.9892C71.5909 80.3079 72.1152 81.3775 72.9486 82.3418C74.2069 83.7975 75.9262 84.6582 77.7775 85.2849C82.4962 86.8843 87.3323 87.0331 92.2336 86.1891C94.8532 85.7379 97.3355 84.939 99.4508 83.3897C100.899 82.3301 101.868 81.0299 101.456 79.0043V79.0076ZM53.4901 73.8802C54.4537 74.2696 55.2853 74.5804 56.0916 74.9414C56.4659 75.1085 56.6973 74.9665 56.9775 74.786C58.903 73.5526 60.8392 72.3376 62.761 71.0992C63.4191 70.6746 64.1441 70.3304 64.7045 69.7805C64.0537 69.2273 63.166 69.1103 62.4248 68.7276C62.074 68.5471 61.7793 68.5354 61.4304 68.761C58.827 70.4507 56.2146 72.127 53.4901 73.8802Z" fill="#06101A"/>
<path d="M53.5169 62.4633C51.1829 63.9474 48.9321 65.3797 46.6812 66.812C41.507 70.1061 36.3237 73.3884 31.173 76.7126C30.5059 77.1421 29.9942 77.2123 29.2403 76.9031C20.7088 73.4135 12.1592 69.959 3.61501 66.4944C3.45592 66.4293 3.30586 66.3474 3.03468 66.2187C3.81208 65.7156 4.50812 65.2594 5.2114 64.8115C11.8754 60.5647 18.5465 56.3281 25.1924 52.058C25.8613 51.6284 26.4019 51.5616 27.1468 51.8624C34.8286 54.9693 42.523 58.0461 50.2121 61.133C51.2842 61.5625 52.3544 61.9937 53.5169 62.4633Z" fill="url(#paint0_linear_3860_2761)"/>
<path d="M85.2693 42.2726C83.0835 43.6682 80.8923 45.072 78.6957 46.4692C74.2898 49.2736 69.8803 52.073 65.4745 54.8791C65.1418 55.0913 64.8688 55.2234 64.4222 55.0412C55.813 51.5382 47.1947 48.0536 38.5782 44.564C38.3106 44.4553 38.0521 44.3266 37.6742 44.1545C39.9486 42.7072 42.1199 41.3234 44.2912 39.9429C48.7025 37.1368 53.1174 34.3341 57.5196 31.5163C57.9535 31.2389 58.3061 31.1587 58.8213 31.3692C67.4252 34.8806 76.0399 38.3719 84.6491 41.8749C84.8534 41.9584 85.1282 41.9718 85.2656 42.2726H85.2693Z" fill="url(#paint1_linear_3860_2761)"/>
<path d="M29.4284 86.777C27.6711 86.0784 26.0186 85.425 24.3698 84.7665C17.225 81.9086 10.0855 79.0424 2.93343 76.1979C2.35671 75.9689 2.13434 75.6848 2.14699 75.0865C2.19038 72.9439 2.16326 70.798 2.16326 68.6537C2.16326 67.4922 2.15603 67.5072 3.35649 67.9952C6.65773 69.3406 9.96439 70.6693 13.2674 72.0096C18.4146 74.0987 23.5526 76.2045 28.7088 78.2736C29.2711 78.4992 29.4519 78.7616 29.4428 79.3198C29.4067 81.7632 29.4284 84.2083 29.4284 86.777Z" fill="url(#paint2_linear_3860_2761)"/>
<path d="M3.78496 81.1532C6.84394 82.3933 9.75468 83.5749 12.6672 84.7548C18.3911 87.0712 24.1077 89.4043 29.8478 91.6856C30.7391 92.0399 31.1151 92.4443 31.0717 93.3919C30.9759 95.476 31.0265 97.5651 31.0519 99.6525C31.0591 100.236 30.9398 100.396 30.2943 100.137C21.8369 96.7362 13.3759 93.3468 4.90405 89.9775C4.0923 89.655 3.72168 89.2806 3.75422 88.3865C3.84281 86.025 3.78496 83.6584 3.78496 81.1532Z" fill="url(#paint3_linear_3860_2761)"/>
<path d="M54.2057 63.8254C54.2057 65.3362 54.2057 66.6883 54.2057 68.0404C54.2057 68.6805 54.1154 69.3339 54.2238 69.959C54.4516 71.2592 53.8243 71.9996 52.6943 72.7166C45.7755 77.1037 38.9054 81.556 32.0137 85.9815C31.7551 86.147 31.5291 86.396 31.0591 86.4094V82.5872C31.0591 82.0022 31.1459 81.4039 31.0428 80.8356C30.7391 79.161 31.4532 78.1549 32.999 77.2023C39.9522 72.9138 46.8078 68.4883 53.6995 64.1129C53.7972 64.051 53.902 63.9976 54.2039 63.8271L54.2057 63.8254Z" fill="url(#paint4_linear_3860_2761)"/>
<path d="M55.8184 77.4263C55.8184 80.0451 55.8166 82.5086 55.8202 84.9721C55.8202 85.3798 55.4894 85.5436 55.1983 85.7308C50.241 88.9246 45.2801 92.1134 40.321 95.3039C38.0015 96.7963 35.6837 98.2888 33.3624 99.7796C33.1942 99.8882 33.0134 99.9801 32.6735 100.174C32.6735 99.7478 32.6735 99.4353 32.6735 99.1227C32.6735 97.0637 32.6971 95.0047 32.6591 92.9457C32.6482 92.3457 32.8688 91.9814 33.3985 91.6471C39.8745 87.5542 46.3377 83.4428 52.8046 79.3365C53.7628 78.7282 54.721 78.1215 55.8166 77.4279L55.8184 77.4263Z" fill="url(#paint5_linear_3860_2761)"/>
<path d="M86.2202 43.6281V47.7645C86.2202 48.5717 86.166 49.3839 86.2365 50.1861C86.2961 50.8563 86.0069 51.2574 85.4392 51.6201C79.135 55.6579 72.8417 59.7124 66.5393 63.7535C66.2862 63.9157 66.0349 64.2884 65.7095 64.1145C65.46 63.9808 65.6119 63.5998 65.6119 63.3307C65.6028 61.2984 65.6155 59.2662 65.601 57.2322C65.5974 56.7793 65.7113 56.4651 66.1524 56.1877C72.5795 52.1198 78.994 48.0319 85.4139 43.9523C85.629 43.8152 85.8098 43.6047 86.2202 43.6281Z" fill="url(#paint6_linear_3860_2761)"/>
<path d="M87.8275 57.1286C87.8275 59.567 87.8365 61.9051 87.8238 64.2432C87.8202 65.0622 87.1748 65.2209 86.4679 65.261C84.105 65.3897 81.7474 65.5752 79.4821 66.2554C76.9728 67.0092 74.5574 67.9351 72.97 70.0392C72.2161 71.0386 71.7967 72.1283 72.048 73.3951C72.2306 74.3143 72.048 75.0647 70.9904 75.6012C69.714 76.248 68.5678 77.1121 67.2137 77.9794C67.2137 75.6865 67.2715 73.5539 67.1884 71.428C67.1504 70.4804 67.4993 69.9506 68.3418 69.4225C74.7382 65.4098 81.0966 61.3436 87.4677 57.2957C87.5382 57.2506 87.6195 57.2239 87.8293 57.1303L87.8275 57.1286Z" fill="url(#paint7_linear_3860_2761)"/>
<path d="M4.71965 79.858C5.39761 79.1744 6.05208 78.9655 7.08439 79.3867C14.5944 82.4518 22.137 85.445 29.6634 88.4784C30.2021 88.6957 30.6143 88.6405 31.0808 88.3397C37.8659 83.9576 44.6618 79.5906 51.4433 75.2035C51.8356 74.9494 52.1592 74.8709 52.5967 75.0698C53.1626 75.3271 53.7447 75.5611 54.3377 75.7583C55.0916 76.0073 54.9597 76.2062 54.3938 76.5656C47.7949 80.7437 41.2069 84.9403 34.617 89.1302C33.8487 89.6182 33.0749 90.0979 32.3192 90.6009C31.992 90.8182 31.7117 90.8533 31.3248 90.6962C22.5601 87.1364 13.7899 83.5899 5.02157 80.0385C4.91852 79.9967 4.82993 79.9231 4.72146 79.8563L4.71965 79.858Z" fill="url(#paint8_linear_3860_2761)"/>
<path d="M63.3574 67.5473C66.2519 65.6789 69.0342 63.8789 71.822 62.0856C75.5481 59.6873 79.2833 57.3024 82.9967 54.8874C83.5047 54.5565 83.9206 54.4964 84.4756 54.7621C85.2458 55.1314 86.0575 55.4273 86.9018 55.7766C86.4806 56.2863 85.8966 56.532 85.3922 56.8545C79.3086 60.7319 73.2087 64.5875 67.1287 68.4682C66.702 68.7406 66.3639 68.8108 65.8993 68.6019C65.0984 68.2409 64.2722 67.925 63.3574 67.5473Z" fill="url(#paint9_linear_3860_2761)"/>
<path d="M22.7298 51.9013C21.081 51.7308 19.4575 51.4634 17.9569 50.7631C15.4656 49.5999 14.2742 47.6529 14.0608 45.1476C13.7716 41.7683 14.7406 38.5745 15.932 35.4509C20.2638 24.0979 29.0159 17.0034 41.194 13.2814C46.3338 11.7104 51.6328 10.9015 57.0403 10.7227C73.7996 10.1645 89.4561 13.7176 103.751 21.8567C111.993 26.5497 118.795 32.6883 123.457 40.6486C127.265 47.1481 128.836 54.099 128.189 61.4777C127.375 70.7532 123.425 78.9074 117.75 86.4398C111.505 94.7277 103.457 101.296 94.6195 107.108C88.6986 111.004 82.5535 114.534 75.7341 116.952C71.5542 118.435 67.2586 119.399 62.7388 119.387C53.2979 119.362 44.8875 113.286 42.6421 104.804C42.1829 103.072 41.8647 101.321 41.9117 99.5259C42.031 99.5125 42.154 99.5109 42.2697 99.4824C50.3311 97.4351 58.3926 95.3862 66.4541 93.3372C66.4631 93.5879 66.5011 93.8386 66.4794 94.0859C66.2733 96.4608 67.4593 98.2006 69.4136 99.5827C71.0335 100.729 72.8776 101.455 74.8175 102.001C78.2904 102.98 81.8538 103.097 85.4443 102.992C85.7083 103.034 85.9741 103.089 86.2037 102.899L87.0877 102.853C87.2974 103.091 87.5885 103.019 87.8453 102.995C90.5011 102.751 93.146 102.434 95.6916 101.66C98.2751 100.875 100.756 99.9187 102.54 97.868C103.8 96.4207 103.829 94.5622 102.666 93.0196C101.925 92.0353 100.839 91.4353 99.9366 90.6347C102.274 89.0537 103.437 86.988 103.198 84.2521C103.077 82.87 103.175 81.4711 103.198 80.0789C103.212 79.1681 103.048 78.2506 102.446 77.567C101.567 76.5693 101.462 75.4813 101.546 74.2997C101.578 73.8284 101.558 73.3537 101.567 72.8808C101.594 71.5354 101.034 70.4056 100.074 69.4262C98.8572 68.1845 97.3313 67.3756 95.6753 66.7555C93.8421 66.0686 91.9221 65.6993 89.9732 65.4536C89.5103 65.3951 89.3928 65.2397 89.3946 64.8302C89.4145 61.9356 89.3784 59.0409 89.4308 56.1463C89.4434 55.4427 89.2247 55.0917 88.5142 54.846C87.4186 54.4667 86.3664 53.982 85.1949 53.5007C85.8764 53.0594 86.3989 52.6817 86.963 52.3675C87.5921 52.0166 87.8471 51.5703 87.8344 50.8667C87.7874 48.3348 87.7277 45.7978 87.8525 43.2691C87.9158 41.9822 87.4638 41.4056 86.1766 40.8942C77.1008 37.2926 68.0667 33.6008 59.029 29.9206C58.3673 29.6516 57.852 29.5931 57.203 30.0025C49.3603 34.9529 41.6206 40.0402 33.673 44.8485C29.956 47.098 26.3781 49.5431 22.737 51.8996L22.7298 51.9013Z" fill="#7B61FF"/>
<path d="M42.0387 96.0316C43.3332 94.9921 44.803 94.1748 46.2041 93.2723C54.2439 88.0864 62.2963 82.9155 70.3434 77.7395C70.5115 77.6309 70.685 77.5323 71.005 77.3384C70.7935 78.042 70.5928 78.5952 70.4609 79.1634C70.168 80.4269 70.5061 81.6988 70.4428 82.9706C70.4157 83.5221 70.2638 83.8614 69.7522 84.1923C68.2462 85.1633 67.024 86.3633 66.5739 88.0897C66.3804 88.8334 66.5052 89.5838 66.4835 90.3326C66.4527 91.3337 66.4631 92.3344 66.4541 93.3372C58.3926 95.3862 50.3311 97.4351 42.2697 99.4824C42.154 99.5109 42.031 99.5125 41.9117 99.5259C41.8828 98.3594 41.7205 97.1898 42.0387 96.035V96.0316Z" fill="#7B61FF"/>
<path d="M87.0846 102.854C88.3538 102.57 89.6356 102.331 90.8885 101.993C93.3599 101.328 95.6559 100.35 97.4692 98.5836C98.6118 97.4706 99.2717 96.1921 99.2211 94.6261C99.1904 93.6835 99.2536 92.7392 99.2012 91.7983C99.1687 91.2234 99.3476 90.8406 99.9334 90.6384C100.836 91.4389 101.922 92.0389 102.663 93.0233C103.826 94.5642 103.797 96.4227 102.537 97.8717C100.752 99.9207 98.2719 100.877 95.6884 101.664C93.1429 102.438 90.4979 102.755 87.8421 102.999C87.5854 103.023 87.2943 103.093 87.0846 102.857V102.854Z" fill="#7B61FF"/>
<path d="M85.4412 102.992C85.6762 102.835 85.9366 102.849 86.2005 102.899C85.9691 103.088 85.7052 103.034 85.4412 102.992Z" fill="#7B61FF"/>
<path d="M63.2582 56.145C60.5553 57.8614 57.9212 59.5176 55.3106 61.2072C54.8984 61.4747 54.5947 61.346 54.2349 61.2022C47.0973 58.3477 39.9578 55.4932 32.8202 52.6386C31.0864 51.945 29.3544 51.2515 27.617 50.5545C27.7219 50.2286 27.9985 50.1551 28.2046 50.0231C30.6055 48.4888 33.0118 46.9646 35.4109 45.4287C35.7689 45.1998 36.078 45.0427 36.5499 45.2349C45.3418 48.8181 54.1427 52.3863 62.94 55.9611C63.0213 55.9945 63.09 56.048 63.2582 56.145Z" fill="#7B61FF"/>
<path d="M87.081 78.6286C83.5809 78.6654 80.4984 78.1857 77.5858 76.9356C76.4035 76.4275 75.3133 75.7808 74.4853 74.8332C73.1818 73.3407 73.2577 71.8232 74.6733 70.4176C76.2697 68.8316 78.3343 68.0311 80.5418 67.5163C85.9781 66.2495 91.3006 66.4367 96.4261 68.7196C97.4638 69.1826 98.3913 69.7959 99.1036 70.6533C100.306 72.0989 100.259 73.5881 98.93 74.9451C97.3138 76.5964 95.1732 77.3802 92.9205 77.9367C90.9119 78.4331 88.8636 78.7105 87.081 78.6286ZM87.0105 76.7702C87.2515 76.7652 87.4925 76.7639 87.7333 76.7626L87.7367 76.7643C88.5441 76.7599 89.35 76.7537 90.1526 76.6097C92.2841 76.2287 94.3632 75.7557 96.1838 74.5758C98.1779 73.2839 97.9158 70.9424 96.2453 69.8711C95.7705 69.5671 95.2827 69.2988 94.7803 69.0651C94.7473 69.0498 94.7143 69.0346 94.6813 69.0196C93.9875 68.7045 93.2658 68.4548 92.5119 68.2684C89.6121 67.5497 86.6561 67.3776 83.6893 67.7787C81.5831 68.0645 79.4643 68.4272 77.678 69.6087C76.7759 70.2054 75.9117 70.8823 75.8882 72.0655C75.8611 73.5212 76.85 74.3585 78.0559 74.9903C78.4712 75.208 78.8927 75.4008 79.3197 75.5713C81.7449 76.5392 84.3493 76.7855 87.0087 76.7685L87.0105 76.7702Z" fill="#7B61FF"/>
<path d="M65.7422 70.9575C65.7422 73.578 65.7404 75.9897 65.7458 78.4013C65.7458 78.6554 65.6211 78.8108 65.4096 78.9462C62.7899 80.6225 60.1721 82.3004 57.5506 83.975C57.5108 84.0001 57.4385 83.9784 57.2957 83.9784C57.2957 81.545 57.2957 79.1083 57.2921 76.6732C57.2921 76.4276 57.3879 76.2588 57.6084 76.1184C60.257 74.4421 62.9038 72.7608 65.7422 70.9575Z" fill="#7B61FF"/>
<path d="M55.7644 70.4878C55.7644 67.8639 55.7644 65.4473 55.7626 63.0323C55.7626 62.795 55.824 62.5961 56.0446 62.4557C58.6896 60.7794 61.3345 59.1048 64.1458 57.3232C64.1458 58.0502 64.1458 58.6402 64.1458 59.2301C64.1458 60.9816 64.1458 62.7331 64.1458 64.483C64.1458 64.7871 64.173 65.0746 63.8331 65.2918C61.1971 66.9782 58.5702 68.6779 55.7662 70.4862L55.7644 70.4878Z" fill="#7B61FF"/>
<path d="M82.4111 93.615C85.8353 93.9091 89.2523 93.9609 92.6421 93.3074C93.4249 93.157 94.1987 92.9748 94.9996 92.8612C93.4358 93.9793 91.6441 94.6445 89.7549 95.0673C83.9135 96.3742 78.1626 96.2205 72.5942 93.9642C71.0719 93.3475 69.6943 92.4868 68.747 91.1732C67.3874 89.288 68.1359 86.8145 70.4175 85.7215C70.4048 86.4987 70.6688 87.1973 70.9291 87.8958C70.5946 89.5822 71.2491 90.7303 73.0914 91.6662C75.9949 93.1403 79.1352 93.6601 82.4111 93.615Z" fill="#7B61FF"/>
<path d="M101.457 79.0113C101.87 81.0353 100.899 82.3355 99.4525 83.3968C97.3372 84.946 94.855 85.7449 92.2353 86.1962C87.3359 87.0401 82.4979 86.8914 77.7793 85.292C75.928 84.6653 74.2105 83.8046 72.9504 82.3489C72.1151 81.3846 71.5908 80.3133 72.1639 78.9963C73.1528 81.4364 75.2337 82.7617 77.678 83.6341C83.5827 85.7416 89.5488 85.7282 95.4932 83.7845C98.4798 82.8068 99.8394 81.6503 101.457 79.0147V79.0113Z" fill="#7B61FF"/>
<path d="M53.4936 73.8839C56.2163 72.1307 58.8306 70.4544 61.434 68.7648C61.7811 68.5391 62.0776 68.5508 62.4283 68.7313C63.1696 69.1141 64.0572 69.231 64.7081 69.7842C64.1476 70.3341 63.4227 70.6784 62.7646 71.1029C60.8446 72.3413 58.9065 73.5563 56.9811 74.7897C56.7009 74.9702 56.4694 75.1123 56.0952 74.9451C55.2889 74.5841 54.4572 74.2733 53.4936 73.8839Z" fill="#7B61FF"/>
<path d="M82.4111 93.615C79.1352 93.6601 75.9949 93.1403 73.0914 91.6662C71.2491 90.7303 70.5946 89.5822 70.9291 87.8958C71.1967 88.2786 71.4661 88.6613 71.7336 89.044C71.7969 89.1292 71.8602 89.2145 71.9235 89.2997L71.918 89.2914C71.9795 89.3482 72.0428 89.4067 72.1043 89.4635V89.4585C72.2507 90.2774 73.7531 91.3203 74.9951 91.4657L74.9897 91.4607C75.024 91.6061 75.0837 91.6211 75.1723 91.4924C77.4502 92.5938 79.9108 93.1637 82.413 93.6133L82.4111 93.615Z" fill="#7B61FF"/>
<path d="M87.6324 92.4283C87.0936 92.4283 86.5531 92.4283 86.0143 92.4283C85.801 92.196 85.8263 91.9169 85.8263 91.6395C85.8317 90.478 85.8353 89.3181 85.839 88.1566C86.4952 88.1566 87.1515 88.1566 87.8078 88.1566C87.8089 88.3677 87.8132 88.5791 87.8175 88.7906L87.8175 88.7964C87.8206 88.9447 87.8237 89.0931 87.8256 89.2413C87.8268 89.3363 87.8276 89.4314 87.8276 89.5263C87.8276 89.7609 87.8231 89.9952 87.8096 90.229C87.8058 90.2931 87.8042 90.3574 87.8042 90.4219C87.8041 90.5911 87.8152 90.7612 87.8262 90.9313C87.8315 91.0122 87.8367 91.0914 87.8408 91.1721C87.8415 91.1867 87.8422 91.2013 87.8428 91.2158C87.8611 91.6267 87.8431 92.035 87.6324 92.4283Z" fill="#7B61FF"/>
<path d="M82.9318 101.619C82.6932 101.619 82.4563 101.619 82.2177 101.619C82.1092 101.508 81.9754 101.493 81.829 101.528H81.8254C81.8317 100.837 81.8384 100.144 81.8452 99.452C81.852 98.7549 81.8588 98.0575 81.8651 97.3602L81.8652 97.3536L83.8358 97.3419C83.8629 98.7491 83.8882 100.156 83.9153 101.562L83.881 101.574C83.8051 101.589 83.7291 101.604 83.6532 101.619C83.476 101.619 83.2988 101.619 83.1217 101.619C83.0584 101.538 82.9951 101.538 82.9318 101.619Z" fill="#7B61FF"/>
<path d="M78.9689 97.1731C79.6432 97.0711 80.2887 97.2567 80.9431 97.3402C80.9449 98.7274 80.9485 100.115 80.9504 101.503C80.2796 101.525 79.6125 101.528 78.9653 101.325C78.9653 99.9407 78.9671 98.5569 78.9689 97.1731Z" fill="#7B61FF"/>
<path d="M90.7094 92.1426C90.0622 92.3465 89.3951 92.3498 88.7244 92.3113C88.7262 90.9259 88.728 89.5404 88.7298 88.1549C89.3897 88.1198 90.0297 87.8741 90.704 87.9811C90.704 89.3682 90.7076 90.7554 90.7094 92.1426Z" fill="#7B61FF"/>
<path d="M82.9445 87.9878C83.6188 87.8741 84.2534 88.1582 84.9169 88.1566C84.9187 89.542 84.9205 90.9275 84.9223 92.313C84.2516 92.3498 83.5809 92.3665 82.9336 92.1543C82.9373 90.7654 82.9409 89.3766 82.9445 87.9878Z" fill="#7B61FF"/>
<path d="M87.8222 97.006C88.4749 96.8522 89.1203 96.6617 89.8037 96.66C89.8417 98.0238 89.7133 99.3909 89.8742 100.753C89.2053 100.97 88.5273 101.144 87.815 101.174C87.8168 99.7836 87.8204 98.3965 87.8222 97.006Z" fill="#7B61FF"/>
<path d="M78.0595 101.181C77.3707 101.189 76.718 101.027 76.0762 100.816C76.0762 99.4377 76.0762 98.0572 76.0762 96.6784C76.7325 96.7904 77.3906 96.904 78.0469 97.016C78.0487 97.7085 78.0509 98.4015 78.0532 99.0946C78.0554 99.7834 78.0577 100.472 78.0595 101.161C78.0595 101.168 78.0595 101.174 78.0595 101.181Z" fill="#7B61FF"/>
<path d="M93.5985 91.6328C92.9531 91.8217 92.3076 92.0155 91.617 91.9955C91.6206 90.6067 91.6224 89.2178 91.6261 87.8307C92.2823 87.7137 92.9404 87.5984 93.5967 87.4814C93.5967 88.8652 93.5967 90.249 93.5985 91.6328Z" fill="#7B61FF"/>
<path d="M82.0297 92.0122C81.3409 92.0155 80.681 91.8752 80.041 91.6495C80.0446 90.2607 80.0482 88.8719 80.0518 87.483C80.7081 87.5984 81.3662 87.7137 82.0224 87.829C82.0261 89.2228 82.0261 90.6167 82.0297 92.0122Z" fill="#7B61FF"/>
<path d="M92.6981 99.8304C92.078 100.161 91.4218 100.404 90.7113 100.511L90.7221 96.3508C91.3802 96.1636 92.0365 95.9764 92.6945 95.7909C92.6945 97.138 92.6981 98.4834 92.6981 99.8304Z" fill="#7B61FF"/>
<path d="M73.1818 95.8377C73.8471 96.0466 74.5142 96.2556 75.1795 96.4645C75.1741 97.372 75.1958 98.2811 75.1542 99.187C75.1343 99.6332 75.3603 100.125 74.9571 100.526C74.3171 100.39 73.7043 100.191 73.1329 99.8872C73.1383 99.3895 73.1452 98.8921 73.1514 98.3947C73.1555 98.0385 73.1597 97.6823 73.1639 97.3261C73.1698 96.8299 73.1758 96.3338 73.1818 95.8377Z" fill="#7B61FF"/>
<path d="M70.2855 94.4907C70.9454 94.8283 71.6035 95.1659 72.2633 95.5035C72.2652 96.8305 72.2688 98.1591 72.2706 99.4861C71.5058 99.2538 70.855 98.8477 70.2656 98.3497C70.2728 97.0628 70.2783 95.7776 70.2855 94.4907Z" fill="#7B61FF"/>
<path d="M75.8448 90.1855C75.1705 89.898 74.5377 89.5521 74.0351 89.034C74.0514 87.7839 74.0676 86.5321 74.0839 85.282C74.751 85.6129 75.4182 85.9438 76.0853 86.2764C76.0853 86.5494 76.0858 86.8226 76.0863 87.0959C76.0877 87.8478 76.0891 88.6001 76.0798 89.3515C76.0791 89.4109 76.0818 89.472 76.0861 89.5333C76.0976 89.6986 76.1107 89.8658 76.0252 90.0097C76.0218 90.0155 76.0182 90.0213 76.0144 90.027C75.9767 90.0847 75.9224 90.1381 75.8448 90.1855Z" fill="#7B61FF"/>
<path d="M99.5772 88.9855C99.0764 89.5103 98.4328 89.8445 97.7711 90.1521C97.4656 89.9515 97.5723 89.6523 97.5668 89.3883C97.5452 88.3354 97.5397 87.2842 97.5289 86.2313C98.2068 85.8953 98.8848 85.5577 99.561 85.2218C99.5664 86.4769 99.57 87.7321 99.5772 88.9855Z" fill="#7B61FF"/>
<path d="M95.6161 98.1942C95.1135 98.7174 94.4663 99.0449 93.7992 99.3491C93.5663 99.1889 93.581 98.971 93.5954 98.7578C93.5993 98.6995 93.6033 98.6416 93.6021 98.5853C93.59 97.888 93.5844 97.1906 93.5788 96.4933C93.576 96.1444 93.5732 95.7955 93.5696 95.4467C94.1842 95.1274 94.8007 94.8082 95.4154 94.489C95.6902 94.7029 95.5781 94.9938 95.5836 95.2545C95.6035 96.2355 95.6053 97.2149 95.6143 98.1959L95.6161 98.1942Z" fill="#7B61FF"/>
<path d="M84.9259 97.3302C85.5207 97.2115 86.1155 97.0962 86.7302 97.1681C86.7302 98.5569 86.732 99.9457 86.7338 101.335C86.1427 101.5 85.537 101.535 84.9241 101.502C84.9241 100.111 84.9259 98.7207 84.9259 97.3302Z" fill="#7B61FF"/>
<path d="M78.9598 91.3788C78.3307 91.2584 77.7431 91.0312 77.1628 90.7838C77.1628 89.405 77.1592 88.0262 77.1592 86.6457C77.7739 86.8446 78.3867 87.0452 79.0014 87.244C78.9951 87.9323 78.9865 88.6236 78.9797 89.3122C78.973 90.0009 78.968 90.6889 78.9616 91.3771L78.9598 91.3788Z" fill="#7B61FF"/>
<path d="M94.6959 87.1605C95.2943 86.9883 95.8927 86.8162 96.4893 86.6441C96.5038 87.9944 96.5201 89.3465 96.5345 90.6969C95.9542 90.9994 95.3431 91.2217 94.6869 91.3303L94.6959 87.1605Z" fill="#7B61FF"/>
<path d="M69.3671 97.5374C67.7635 96.299 67.9497 94.601 67.9822 92.8629C68.5698 93.1487 68.9856 93.5514 69.3924 93.9642C69.3834 95.1559 69.3761 96.3458 69.3671 97.5374Z" fill="#7B61FF"/>
<path d="M96.4857 93.8038C96.7985 93.4428 97.1113 93.0835 97.4258 92.7225C97.5162 92.786 97.6048 92.8478 97.6952 92.9113C97.7476 94.494 97.9809 96.1152 96.5092 97.3803C96.502 96.1887 96.493 94.9954 96.4857 93.8038Z" fill="#7B61FF"/>
<path d="M72.9937 88.1382C71.6902 86.8647 71.8801 85.2887 71.9379 83.6224C72.3917 83.9968 72.7804 84.316 73.1691 84.6352C73.1745 84.9661 73.2125 85.302 73.1763 85.6296C73.0859 86.4652 73.4132 87.3259 72.9919 88.1399L72.9937 88.1382Z" fill="#7B61FF"/>
<path d="M100.449 84.6001C100.756 84.2708 101.062 83.9416 101.369 83.6124C101.445 83.6541 101.519 83.6959 101.595 83.7394C101.6 85.2887 101.915 86.8964 100.476 88.1649C100.467 86.9766 100.458 85.7884 100.449 84.6001Z" fill="#7B61FF"/>
<path d="M86.0197 80.1344V83.7661C85.405 83.7511 84.7777 83.8814 84.1793 83.6408C84.8699 83.6926 85.1827 83.4736 85.1194 82.7634C85.0416 81.8943 85.0959 81.0135 85.0941 80.1378C85.4014 80.1378 85.7106 80.1361 86.0197 80.1344Z" fill="#7B61FF"/>
<path d="M87.6288 83.7661C87.6288 82.5545 87.6288 81.3444 87.6288 80.1328C87.9361 80.1328 88.2453 80.1328 88.5508 80.1328C88.549 81.0754 88.549 82.0197 88.5454 82.9622C88.5453 82.979 88.5451 82.9957 88.5449 83.0124L88.5452 83.0188C88.5439 83.236 88.5426 83.4493 88.7148 83.5766C88.774 83.6204 88.8538 83.6541 88.9612 83.6742C88.5291 83.8463 88.0735 83.7578 87.6288 83.7661Z" fill="#7B61FF"/>
<path d="M80.9775 79.5796C80.5219 80.1294 80.8238 80.7595 80.7714 81.3495C80.7368 81.7456 80.7495 82.1457 80.7621 82.5453C80.7623 82.552 80.7614 82.5587 80.7616 82.5654C80.7675 82.7439 80.7733 82.9225 80.775 83.101C80.408 83.0007 80.041 82.8987 79.674 82.7985C79.7283 82.6872 79.7699 82.5751 79.8013 82.4625C79.9218 82.0295 79.8923 81.5875 79.8628 81.1454L79.864 81.1429C79.8432 80.8319 79.8213 80.521 79.853 80.213C79.8738 80.0096 79.8663 79.8039 79.8588 79.5981C79.8553 79.5011 79.8517 79.404 79.8511 79.3072C80.2272 79.3974 80.6014 79.4893 80.9775 79.5796Z" fill="#7B61FF"/>
<path d="M91.2591 79.7985C91.2536 80.7411 91.2482 81.682 91.2428 82.6246C91.2426 82.6493 91.2422 82.6742 91.2417 82.699L91.2421 82.7047C91.2392 82.9145 91.2363 83.1225 91.4127 83.2401C91.472 83.2797 91.5517 83.3091 91.6586 83.3249C91.2428 83.5639 90.7546 83.4152 90.3171 83.5405C90.3244 82.3489 90.3298 81.1606 90.337 79.969C90.6426 79.9072 90.9228 79.7183 91.2591 79.7985Z" fill="#7B61FF"/>
<path d="M92.8663 83.0893C92.8681 81.8809 92.8717 80.6743 92.8717 79.4659C93.1791 79.4108 93.4864 79.3556 93.7937 79.3021C93.7919 80.4654 93.7883 81.6286 93.7865 82.7918C93.5244 83.009 93.1718 82.984 92.8663 83.0893Z" fill="#7B61FF"/>
<path d="M82.384 83.4285C82.384 83.4215 82.384 83.4145 82.3841 83.4074V83.4027C82.3845 83.1035 82.3849 82.8045 82.3854 82.5055C82.3866 81.6037 82.3876 80.7024 82.3876 79.8002C82.695 79.857 83.0041 79.9138 83.3115 79.9723C83.3151 81.169 83.3205 82.3673 83.3241 83.5639C83.0114 83.5188 82.6968 83.4737 82.384 83.4285Z" fill="#7B61FF"/>
<path d="M96.4496 78.3846C96.464 79.5144 96.4785 80.6442 96.493 81.774C96.2489 81.9979 95.947 82.1032 95.6161 82.1584C95.6053 81.0202 95.5962 79.8821 95.5854 78.7439C95.8313 78.535 96.1476 78.4782 96.4496 78.3846Z" fill="#7B61FF"/>
<path d="M77.1501 81.8291C77.1555 80.6943 77.161 79.5595 77.1664 78.4247C77.4936 78.4849 77.801 78.5818 78.0595 78.7874C78.0631 79.9422 78.0686 81.0954 78.074 82.2503C77.7666 82.1099 77.4575 81.9695 77.1501 81.8291Z" fill="#7B61FF"/>
<path d="M74.4708 79.9272C74.7926 78.9896 74.516 78.0219 74.6408 77.076C75.0023 77.1579 75.2482 77.4052 75.5266 77.6075C75.5158 78.6804 75.5031 79.7551 75.4923 80.828C75.0656 80.6108 74.7312 80.3066 74.4708 79.9272Z" fill="#7B61FF"/>
<path d="M98.1255 80.7879C98.1219 79.7099 98.1165 78.6303 98.1128 77.5523C98.4148 77.3451 98.7185 77.1395 99.0222 76.9323C99.1343 77.8765 98.8324 78.8442 99.1994 79.7751C98.9246 80.1879 98.5431 80.5038 98.1255 80.7879Z" fill="#7B61FF"/>
<path d="M74.9933 91.4674C73.7512 91.322 72.2489 90.2791 72.1006 89.4602C73.0064 90.2005 74.0025 90.8306 74.9933 91.4674Z" fill="#7B61FF"/>
<path d="M82.2177 101.619C82.1092 101.508 81.9754 101.493 81.829 101.528C81.9266 101.679 82.0676 101.665 82.2177 101.619Z" fill="#7B61FF"/>
<path d="M71.7336 89.044C71.7969 89.1292 71.8602 89.2145 71.9235 89.2997C71.9307 89.1694 71.853 89.0925 71.7336 89.044Z" fill="#7B61FF"/>
<path d="M72.1024 89.4652C72.041 89.4083 71.9777 89.3498 71.9162 89.293C72.0464 89.288 72.0916 89.3615 72.1024 89.4652Z" fill="#7B61FF"/>
<path d="M74.9897 91.4607C75.024 91.6061 75.0837 91.6211 75.1723 91.4924C75.1108 91.4824 75.0512 91.4707 74.9897 91.4607Z" fill="#7B61FF"/>
<path d="M82.9318 101.619C82.9969 101.54 83.0584 101.538 83.1217 101.619C83.0584 101.619 82.9951 101.619 82.9318 101.619Z" fill="#7B61FF"/>
<path d="M87.0087 75.9496C84.5083 76.0031 82.2358 75.7106 80.0355 74.9702C78.9707 74.6126 78.0288 74.0895 77.2658 73.3106C76.5716 72.6003 76.5716 71.7764 77.2568 71.0594C77.287 71.0278 77.3174 70.9967 77.3482 70.9661C77.4679 70.8465 77.5919 70.734 77.7198 70.6281C78.8399 69.7019 80.2561 69.2737 81.6789 68.9536C85.2007 68.1648 88.7442 68.2049 92.2642 69.0606C93.4954 69.3597 94.6416 69.8127 95.6758 70.5146C96.932 71.3661 97.1087 72.6079 96.0491 73.5954C96.0168 73.6255 95.9834 73.6554 95.9488 73.685C94.5947 74.8449 92.8627 75.241 91.1271 75.5902C89.7187 75.8727 88.2887 76.0398 87.0069 75.9512L87.0087 75.9496Z" fill="#7B61FF"/>
<path fill-rule="evenodd" clip-rule="evenodd" d="M79.3197 75.5713C81.7467 76.5406 84.3511 76.7872 87.0105 76.7702L87.0141 76.7718C87.254 76.7669 87.4937 76.7639 87.7333 76.7626L87.7367 76.7643C88.5448 76.7599 89.351 76.7556 90.1562 76.6114C92.2859 76.2303 94.365 75.759 96.1874 74.5774C98.1815 73.2839 97.9194 70.9424 96.2489 69.8728C95.773 69.5681 95.284 69.2992 94.7803 69.0651C95.2827 69.2988 95.7705 69.5671 96.2453 69.8711C97.9158 70.9424 98.1779 73.2839 96.1838 74.5758C94.3632 75.7557 92.2841 76.2287 90.1526 76.6097C89.3488 76.7539 88.5418 76.7583 87.7333 76.7626C87.4925 76.7639 87.2515 76.7652 87.0105 76.7702L87.0087 76.7685C84.3493 76.7855 81.7449 76.5392 79.3197 75.5713ZM91.1289 75.5886C89.7187 75.871 88.2905 76.0365 87.0087 75.9496C84.5083 76.0047 82.2376 75.7089 80.0374 74.9685C78.9725 74.6109 78.0288 74.0878 77.2676 73.309C76.5734 72.5987 76.5734 71.7747 77.2586 71.0577C77.2882 71.0267 77.3181 70.9962 77.3482 70.9661C77.3174 70.9967 77.287 71.0278 77.2568 71.0594C76.5716 71.7764 76.5716 72.6003 77.2658 73.3106C78.0288 74.0895 78.9707 74.6126 80.0355 74.9702C82.2358 75.7106 84.5083 76.0031 87.0087 75.9496L87.0069 75.9512C88.2887 76.0398 89.7187 75.8727 91.1271 75.5902C92.8627 75.241 94.5947 74.8449 95.9488 73.685C95.9834 73.6554 96.0168 73.6255 96.0491 73.5954C96.0174 73.625 95.9845 73.6543 95.9506 73.6833C94.5965 74.8432 92.8627 75.2409 91.1289 75.5886Z" fill="#7B61FF"/>
<path fill-rule="evenodd" clip-rule="evenodd" d="M88.7148 83.5766C88.5426 83.4493 88.5439 83.236 88.5452 83.0188L88.5449 83.0124M88.5449 83.0124C88.5451 82.9957 88.5453 82.979 88.5454 82.9622L88.5449 83.0124ZM88.5454 82.9622C88.5454 82.9811 88.5453 83 88.5452 83.0188L88.5454 82.9622ZM88.5452 83.0188C88.5439 83.236 88.5426 83.4493 88.7148 83.5766L88.5452 83.0188Z" fill="#7B61FF"/>
<path fill-rule="evenodd" clip-rule="evenodd" d="M87.6306 80.1344L87.6288 83.7661L87.6306 83.7678V80.1344Z" fill="#7B61FF"/>
<path fill-rule="evenodd" clip-rule="evenodd" d="M80.7616 82.5654C80.7675 82.7439 80.7733 82.9225 80.775 83.101C80.7738 82.9161 80.768 82.7308 80.7621 82.5453C80.7495 82.1457 80.7368 81.7456 80.7714 81.3495C80.7349 81.7525 80.7483 82.1587 80.7616 82.5654Z" fill="#7B61FF"/>
<path fill-rule="evenodd" clip-rule="evenodd" d="M79.8628 81.1454L79.864 81.1429C79.8435 80.8313 79.823 80.5197 79.8548 80.2113C79.8756 80.008 79.8681 79.8023 79.8606 79.5964C79.8571 79.4994 79.8535 79.4024 79.853 79.3055L79.8511 79.3072C79.8517 79.404 79.8553 79.5011 79.8588 79.5981C79.8663 79.8039 79.8738 80.0096 79.853 80.213C79.8212 80.5218 79.842 80.8336 79.8628 81.1454Z" fill="#7B61FF"/>
<path fill-rule="evenodd" clip-rule="evenodd" d="M91.2417 82.699L91.2421 82.7047C91.2424 82.678 91.2428 82.6512 91.2428 82.6246C91.2426 82.6493 91.2422 82.6742 91.2417 82.699Z" fill="#7B61FF"/>
<path fill-rule="evenodd" clip-rule="evenodd" d="M100.449 84.6001C100.372 84.6534 100.296 84.7067 100.22 84.7599C100.148 84.8103 100.077 84.8606 100.005 84.9109C100.153 84.8073 100.3 84.7037 100.449 84.6001Z" fill="#7B61FF"/>
<path fill-rule="evenodd" clip-rule="evenodd" d="M87.8175 88.7906L87.8175 88.7964C87.8206 88.9447 87.8237 89.0931 87.8256 89.2413C87.8237 89.0911 87.8206 88.9408 87.8175 88.7906Z" fill="#7B61FF"/>
<path fill-rule="evenodd" clip-rule="evenodd" d="M79.0014 87.244L78.9996 87.2457C78.9933 87.9343 78.9865 88.6233 78.9797 89.3122C78.973 90.0008 78.9662 90.6906 78.9598 91.3788L78.9616 91.3771C78.968 90.6889 78.973 90.0009 78.9797 89.3122C78.9865 88.6236 78.9951 87.9323 79.0014 87.244Z" fill="#7B61FF"/>
<path fill-rule="evenodd" clip-rule="evenodd" d="M76.0861 89.5333C76.0818 89.472 76.0791 89.4109 76.0798 89.3515C76.0891 88.6001 76.0877 87.8478 76.0863 87.0959C76.0858 86.8226 76.0853 86.5494 76.0853 86.2764M76.0861 89.5333C76.0817 89.4713 76.0773 89.4097 76.078 89.3498L76.0861 89.5333ZM76.078 89.3498C76.0873 88.5984 76.0859 87.8461 76.0845 87.0942L76.078 89.3498ZM76.0845 87.0942C76.084 86.8212 76.0853 86.5492 76.0853 86.2764L76.0845 87.0942Z" fill="#7B61FF"/>
<path fill-rule="evenodd" clip-rule="evenodd" d="M73.1329 99.8872C73.1383 99.3895 73.1452 98.8921 73.1514 98.3947L73.1329 99.8872Z" fill="#7B61FF"/>
<path fill-rule="evenodd" clip-rule="evenodd" d="M76.0762 100.816L76.078 100.815L76.0762 96.6784V100.816Z" fill="#7B61FF"/>
<path fill-rule="evenodd" clip-rule="evenodd" d="M78.0532 99.0946C78.0554 99.7834 78.0577 100.472 78.0595 101.161C78.0595 101.168 78.0595 101.174 78.0595 101.181L78.0595 101.161C78.0559 99.7809 78.0523 98.3982 78.0469 97.016C78.0487 97.7085 78.0509 98.4015 78.0532 99.0946Z" fill="#7B61FF"/>
<path fill-rule="evenodd" clip-rule="evenodd" d="M81.829 101.528L81.8452 99.452L81.8651 97.3602C81.8588 98.0575 81.852 98.7549 81.8452 99.452C81.8384 100.144 81.8317 100.837 81.8254 101.528H81.829Z" fill="#7B61FF"/>
<path fill-rule="evenodd" clip-rule="evenodd" d="M93.5793 96.2299C93.5774 95.9683 93.5754 95.7066 93.5732 95.445L93.5696 95.4467C93.5732 95.7955 93.576 96.1444 93.5788 96.4933C93.5844 97.1906 93.59 97.888 93.6021 98.5853C93.6033 98.6416 93.5993 98.6995 93.5954 98.7578C93.581 98.971 93.5663 99.1889 93.7992 99.3491L93.8028 99.3474C93.5699 99.1873 93.5846 98.9694 93.599 98.7561C93.603 98.6979 93.6069 98.64 93.6057 98.5837C93.5908 97.7991 93.585 97.0145 93.5793 96.2299Z" fill="#7B61FF"/>
</g>
<defs>
<linearGradient id="paint0_linear_3860_2761" x1="2.14648" y1="100.257" x2="87.8306" y2="100.257" gradientUnits="userSpaceOnUse">
<stop stop-color="#2DBE64"/>
<stop offset="1" stop-color="#90BE2D"/>
</linearGradient>
<linearGradient id="paint1_linear_3860_2761" x1="2.14648" y1="100.257" x2="87.8306" y2="100.257" gradientUnits="userSpaceOnUse">
<stop stop-color="#2DBE64"/>
<stop offset="1" stop-color="#90BE2D"/>
</linearGradient>
<linearGradient id="paint2_linear_3860_2761" x1="2.14648" y1="100.257" x2="87.8306" y2="100.257" gradientUnits="userSpaceOnUse">
<stop stop-color="#2DBE64"/>
<stop offset="1" stop-color="#90BE2D"/>
</linearGradient>
<linearGradient id="paint3_linear_3860_2761" x1="2.14648" y1="100.257" x2="87.8306" y2="100.257" gradientUnits="userSpaceOnUse">
<stop stop-color="#2DBE64"/>
<stop offset="1" stop-color="#90BE2D"/>
</linearGradient>
<linearGradient id="paint4_linear_3860_2761" x1="2.14648" y1="100.257" x2="87.8306" y2="100.257" gradientUnits="userSpaceOnUse">
<stop stop-color="#2DBE64"/>
<stop offset="1" stop-color="#90BE2D"/>
</linearGradient>
<linearGradient id="paint5_linear_3860_2761" x1="2.14648" y1="100.257" x2="87.8306" y2="100.257" gradientUnits="userSpaceOnUse">
<stop stop-color="#2DBE64"/>
<stop offset="1" stop-color="#90BE2D"/>
</linearGradient>
<linearGradient id="paint6_linear_3860_2761" x1="2.14648" y1="100.257" x2="87.8306" y2="100.257" gradientUnits="userSpaceOnUse">
<stop stop-color="#2DBE64"/>
<stop offset="1" stop-color="#90BE2D"/>
</linearGradient>
<linearGradient id="paint7_linear_3860_2761" x1="2.14648" y1="100.257" x2="87.8306" y2="100.257" gradientUnits="userSpaceOnUse">
<stop stop-color="#2DBE64"/>
<stop offset="1" stop-color="#90BE2D"/>
</linearGradient>
<linearGradient id="paint8_linear_3860_2761" x1="2.14648" y1="100.257" x2="87.8306" y2="100.257" gradientUnits="userSpaceOnUse">
<stop stop-color="#2DBE64"/>
<stop offset="1" stop-color="#90BE2D"/>
</linearGradient>
<linearGradient id="paint9_linear_3860_2761" x1="2.14648" y1="100.257" x2="87.8306" y2="100.257" gradientUnits="userSpaceOnUse">
<stop stop-color="#2DBE64"/>
<stop offset="1" stop-color="#90BE2D"/>
</linearGradient>
<clipPath id="clip0_3860_2761">
<rect width="128" height="128" fill="white" transform="translate(0.5)"/>
</clipPath>
</defs>
</svg>
