<svg width="128" height="128" viewBox="0 0 128 128" fill="none" xmlns="http://www.w3.org/2000/svg">
<g clip-path="url(#clip0_3860_2749)">
<path d="M25.427 52.7816C31.8865 56.4547 40.1296 55.7058 44.1425 62.8888C47.7413 69.3308 44.8229 72.3112 44.8512 81.7469C44.8799 91.327 44.2008 100.938 44.1425 100.945C44.0969 102.811 44.4056 104.633 44.8512 106.433C47.0301 115.254 55.1913 121.574 64.3524 121.6C68.7382 121.612 72.9065 120.609 76.9626 119.067C83.5799 116.552 89.5429 112.882 95.2883 108.83C103.864 102.785 111.674 95.9545 117.733 87.3355C123.24 79.502 127.073 71.0219 127.863 61.3756C128.491 53.702 126.966 46.4734 123.272 39.7141C118.747 31.4356 112.148 25.0517 104.149 20.1712C90.278 11.7068 75.0854 8.01165 58.8227 8.59216C53.5755 8.77814 48.4336 9.61936 43.446 11.2531C31.6288 15.1238 23.1361 22.5019 18.9327 34.3087C17.7766 37.5571 16.8362 40.8786 17.1169 44.3929C17.3239 46.9983 18.4801 49.0232 20.8975 50.2329C21.29 50.4291 23.0437 51.4264 25.427 52.7816Z" fill="#7B61FF"/>
<path d="M68.6782 41.3221C71.0614 39.9789 74.2414 39.2822 77.4695 39.2822C80.6976 39.2822 83.8776 39.9789 86.2608 41.3221L113.078 56.4374C115.47 57.7853 116.45 59.4231 116.45 60.8671C116.45 62.3112 115.47 63.949 113.078 65.2969L48.6551 101.608C46.2719 102.951 43.0919 103.648 39.8638 103.648C36.6357 103.648 33.4558 102.951 31.0726 101.608L4.25517 86.4928C1.86379 85.145 0.883792 83.5072 0.883792 82.0631C0.883791 80.619 1.86379 78.9812 4.25517 77.6333L68.6782 41.3221Z" fill="url(#paint0_linear_3860_2749)" stroke="#06101A" stroke-width="1.76758"/>
<rect x="-5.26781e-08" y="0.87186" width="16.5713" height="2.41998" rx="1.20999" transform="matrix(0.869888 0.49325 -0.869888 0.49325 87.2814 46.7778)" fill="#7B61FF" stroke="#06101A" stroke-width="1.76758"/>
<mask id="path-4-inside-1_3860_2749" fill="white">
<path fill-rule="evenodd" clip-rule="evenodd" d="M18.4131 19.6504C12.7511 19.6504 8.16113 24.2404 8.16113 29.9024V44.9783C8.16113 50.6403 12.7511 55.2303 18.4131 55.2303H62.5006L73.8235 66.3507V45.0668C73.8237 45.0374 73.8238 45.0079 73.8238 44.9783V29.9024C73.8238 24.2404 69.2339 19.6504 63.5718 19.6504H18.4131Z"/>
</mask>
<path fill-rule="evenodd" clip-rule="evenodd" d="M18.4131 19.6504C12.7511 19.6504 8.16113 24.2404 8.16113 29.9024V44.9783C8.16113 50.6403 12.7511 55.2303 18.4131 55.2303H62.5006L73.8235 66.3507V45.0668C73.8237 45.0374 73.8238 45.0079 73.8238 44.9783V29.9024C73.8238 24.2404 69.2339 19.6504 63.5718 19.6504H18.4131Z" fill="#2DBE64"/>
<path d="M62.5006 55.2303L63.7391 53.9692L63.2234 53.4627H62.5006V55.2303ZM73.8235 66.3507L72.5849 67.6118L75.591 70.5642V66.3507H73.8235ZM73.8235 45.0668L72.0559 45.0517L72.0559 45.0593V45.0668H73.8235ZM9.92872 29.9024C9.92872 25.2166 13.7273 21.418 18.4131 21.418V17.8828C11.7749 17.8828 6.39355 23.2641 6.39355 29.9024H9.92872ZM9.92872 44.9783V29.9024H6.39355V44.9783H9.92872ZM18.4131 53.4627C13.7273 53.4627 9.92872 49.6641 9.92872 44.9783H6.39355C6.39355 51.6166 11.7749 56.9979 18.4131 56.9979V53.4627ZM62.5006 53.4627H18.4131V56.9979H62.5006V53.4627ZM75.062 65.0896L63.7391 53.9692L61.262 56.4914L72.5849 67.6118L75.062 65.0896ZM72.0559 45.0668V66.3507H75.591V45.0668H72.0559ZM72.0563 44.9783C72.0563 45.003 72.0562 45.0274 72.0559 45.0517L75.591 45.0819C75.5913 45.0473 75.5914 45.0127 75.5914 44.9783H72.0563ZM72.0563 29.9024V44.9783H75.5914V29.9024H72.0563ZM63.5718 21.418C68.2577 21.418 72.0563 25.2166 72.0563 29.9024H75.5914C75.5914 23.2642 70.2101 17.8828 63.5718 17.8828V21.418ZM18.4131 21.418H63.5718V17.8828H18.4131V21.418Z" fill="#06101A" mask="url(#path-4-inside-1_3860_2749)"/>
<path d="M24.2722 44.8C23.2456 44.8 22.2887 44.6468 21.4015 44.3403C20.527 44.0221 19.7665 43.5742 19.1201 42.9967C18.4737 42.4192 17.9668 41.7414 17.5992 40.9635C17.2443 40.1856 17.0669 39.3311 17.0669 38.4C17.0669 37.4689 17.2443 36.6144 17.5992 35.8365C17.9668 35.0586 18.4737 34.3808 19.1201 33.8033C19.7792 33.2258 20.546 32.7838 21.4205 32.4773C22.295 32.1591 23.2519 32 24.2912 32C25.4446 32 26.4839 32.1886 27.4091 32.5657C28.347 32.9311 29.1328 33.4733 29.7665 34.1923L27.7893 35.8895C27.3331 35.4063 26.8261 35.0468 26.2684 34.811C25.7108 34.5635 25.1024 34.4398 24.4433 34.4398C23.8223 34.4398 23.2519 34.5341 22.7323 34.7227C22.2127 34.9112 21.7627 35.1823 21.3825 35.5359C21.0023 35.8895 20.7044 36.3079 20.489 36.7912C20.2862 37.2744 20.1848 37.8107 20.1848 38.4C20.1848 38.9893 20.2862 39.5256 20.489 40.0088C20.7044 40.4921 21.0023 40.9105 21.3825 41.2641C21.7627 41.6177 22.2127 41.8888 22.7323 42.0773C23.2519 42.2659 23.8223 42.3602 24.4433 42.3602C25.1024 42.3602 25.7108 42.2424 26.2684 42.0066C26.8261 41.7591 27.3331 41.3878 27.7893 40.8928L29.7665 42.5901C29.1328 43.309 28.347 43.8571 27.4091 44.2343C26.4839 44.6114 25.4383 44.8 24.2722 44.8Z" fill="#06101A"/>
<path d="M31.7739 44.5878V32.2122H34.3214L39.9868 40.9459H38.637L44.2073 32.2122H46.7549L46.7739 44.5878H43.8842L43.8651 36.3315H44.4165L39.9488 43.2796H38.58L34.0172 36.3315H34.6636V44.5878H31.7739Z" fill="#06101A"/>
<path d="M56.3726 44.8C55.346 44.8 54.3891 44.6468 53.5019 44.3403C52.6273 44.0221 51.8669 43.5742 51.2205 42.9967C50.5741 42.4192 50.0671 41.7414 49.6996 40.9635C49.3447 40.1856 49.1673 39.3311 49.1673 38.4C49.1673 37.4689 49.3447 36.6144 49.6996 35.8365C50.0671 35.0586 50.5741 34.3808 51.2205 33.8033C51.8796 33.2258 52.6463 32.7838 53.5209 32.4773C54.3954 32.1591 55.3523 32 56.3916 32C57.545 32 58.5842 32.1886 59.5095 32.5657C60.4474 32.9311 61.2332 33.4733 61.8669 34.1923L59.8897 35.8895C59.4334 35.4063 58.9265 35.0468 58.3688 34.811C57.8111 34.5635 57.2028 34.4398 56.5437 34.4398C55.9226 34.4398 55.3523 34.5341 54.8327 34.7227C54.313 34.9112 53.8631 35.1823 53.4828 35.5359C53.1026 35.8895 52.8048 36.3079 52.5893 36.7912C52.3865 37.2744 52.2851 37.8107 52.2851 38.4C52.2851 38.9893 52.3865 39.5256 52.5893 40.0088C52.8048 40.4921 53.1026 40.9105 53.4828 41.2641C53.8631 41.6177 54.313 41.8888 54.8327 42.0773C55.3523 42.2659 55.9226 42.3602 56.5437 42.3602C57.2028 42.3602 57.8111 42.2424 58.3688 42.0066C58.9265 41.7591 59.4334 41.3878 59.8897 40.8928L61.8669 42.5901C61.2332 43.309 60.4474 43.8571 59.5095 44.2343C58.5842 44.6114 57.5386 44.8 56.3726 44.8Z" fill="#06101A"/>
</g>
<defs>
<linearGradient id="paint0_linear_3860_2749" x1="0" y1="104.532" x2="117.333" y2="104.532" gradientUnits="userSpaceOnUse">
<stop stop-color="#2DBE64"/>
<stop offset="1" stop-color="#90BE2D"/>
</linearGradient>
<clipPath id="clip0_3860_2749">
<rect width="128" height="128" fill="white"/>
</clipPath>
</defs>
</svg>
