<svg width="129" height="128" viewBox="0 0 129 128" fill="none" xmlns="http://www.w3.org/2000/svg">
<path d="M21.9814 51.8555C28.6894 55.8058 40.2031 62.5862 41.4167 62.7255C41.3589 62.7413 41.3881 72.8146 41.4174 82.9624C41.4473 93.2656 41.4773 103.646 41.4167 103.653C41.3694 105.661 41.69 107.62 42.1528 109.556C44.4154 119.043 52.8905 125.839 62.404 125.867C66.9585 125.881 71.2871 124.802 75.4991 123.144C82.371 120.439 88.5633 116.491 94.5298 112.134C103.435 105.633 111.545 98.2868 117.838 89.0172C123.557 80.5925 127.537 71.4724 128.357 61.0981C129.009 52.8454 127.426 45.0712 123.589 37.8017C118.891 28.8985 112.037 22.0327 103.732 16.7839C89.3267 7.68068 73.5498 3.70666 56.6616 4.33099C51.2126 4.531 45.8729 5.43571 40.6935 7.1928C28.4218 11.3556 19.6024 19.2906 15.2373 31.9883C14.0368 35.482 13.0603 39.0541 13.3518 42.8337C13.5667 45.6357 14.7673 47.8134 17.2778 49.1144C17.6853 49.3255 19.5065 50.398 21.9814 51.8555Z" fill="#7B61FF"/>
<path d="M71.4713 28.766C73.9789 27.2614 77.3197 26.4834 80.7079 26.4834C84.096 26.4834 87.4368 27.2614 89.9444 28.766L124.031 49.218C126.539 50.7229 127.616 52.5804 127.616 54.2749C127.616 55.9694 126.539 57.8269 124.031 59.3318L57.5287 99.2332C55.0211 100.738 51.6803 101.516 48.2922 101.516C44.904 101.516 41.5632 100.738 39.0556 99.2332L4.96897 78.7812C2.46076 77.2763 1.38379 75.4188 1.38379 73.7243C1.38379 72.0298 2.46076 70.1723 4.96897 68.6674L71.4713 28.766Z" fill="url(#paint0_linear_3860_2723)" stroke="#06101A" stroke-width="1.76758"/>
<rect x="-5.26781e-08" y="0.883792" width="41.2026" height="9.59277" rx="2.65138" transform="matrix(0.866025 0.5 -0.866025 0.5 22.6204 66.5591)" fill="#7B61FF" stroke="#06101A" stroke-width="1.76758"/>
<rect width="2.33937" height="35.0906" rx="1.16969" transform="matrix(0.866025 -0.5 0.866025 0.5 63.8325 42.9395)" fill="#06101A"/>
<rect width="2.33937" height="35.0906" rx="1.16969" transform="matrix(0.866025 -0.5 0.866025 0.5 52.3521 49.5684)" fill="#06101A"/>
<circle cx="5.06864" cy="5.06864" r="3.89895" transform="matrix(0.866025 -0.5 0.866025 0.5 75.9888 53.8594)" fill="#7B61FF" stroke="#06101A" stroke-width="2.33937"/>
<circle cx="5.06864" cy="5.06864" r="3.89895" transform="matrix(0.866025 -0.5 0.866025 0.5 54.7163 54.834)" fill="#7B61FF" stroke="#06101A" stroke-width="2.33937"/>
<defs>
<linearGradient id="paint0_linear_3860_2723" x1="0.5" y1="102.4" x2="128.5" y2="102.4" gradientUnits="userSpaceOnUse">
<stop stop-color="#2DBE64"/>
<stop offset="1" stop-color="#90BE2D"/>
</linearGradient>
</defs>
</svg>
