<svg width="200" height="43" viewBox="0 0 200 43" fill="none" xmlns="http://www.w3.org/2000/svg">
<path fill-rule="evenodd" clip-rule="evenodd" d="M41.6921 22.1111C41.707 21.784 41.7145 21.4549 41.7145 21.124C41.7145 21.0062 41.7136 20.8885 41.7117 20.7711C41.7104 20.6912 41.7087 20.6114 41.7065 20.5318H46.7746C46.7636 20.1246 46.7411 19.7197 46.7076 19.3187C46.6638 18.7959 46.6014 18.2792 46.5209 17.7679H41.4527C41.4384 17.677 41.4235 17.5864 41.4081 17.496C41.3329 17.0551 41.244 16.6192 41.1423 16.1885H46.2102C45.9864 15.2407 45.6993 14.3176 45.3538 13.4246H40.2857C40.1714 13.1291 40.0508 12.8368 39.9239 12.5479C39.8863 12.4623 39.8482 12.3771 39.8096 12.2921C39.7414 12.1422 39.6715 11.9933 39.6 11.8452H44.6679C44.4224 11.3378 44.1572 10.8412 43.8736 10.3569C43.6183 9.92117 43.348 9.49625 43.0634 9.08136H37.9954C37.9562 9.02415 37.9166 8.96715 37.8768 8.91036L37.8628 8.89011C37.7435 8.72012 37.6221 8.55302 37.4983 8.38741L37.4851 8.36977L37.4691 8.34797L37.4547 8.32869L37.4113 8.27184C37.3857 8.23813 37.3601 8.20449 37.3343 8.17093L37.3305 8.16597C37.2765 8.09503 37.2217 8.02485 37.1668 7.95544L37.1585 7.94465L37.1469 7.93038C37.0328 7.78602 36.9168 7.64321 36.7991 7.50199H41.8672C41.0281 6.49561 40.098 5.5702 39.0895 4.7381H34.0213C33.644 4.42654 33.2553 4.1281 32.8567 3.84354C32.3157 3.45718 31.7561 3.09704 31.1793 2.76389H36.2474C33.2036 1.00484 29.6804 0 25.9254 0H20.8573C9.33825 0 0 9.45769 0 21.124C0 32.7904 9.33825 42.2481 20.8573 42.2481H25.9254C29.6804 42.2481 33.2036 41.2432 36.2474 39.4842H31.1793C31.3049 39.4115 31.4298 39.3376 31.5538 39.2623C32.1571 38.8966 32.7406 38.5009 33.3024 38.0772C33.378 38.0202 33.4532 37.9628 33.5279 37.9048H38.5961C38.7902 37.7544 38.9817 37.6002 39.1706 37.4429C39.6247 37.0642 40.063 36.6663 40.484 36.2506C40.6595 36.0771 40.832 35.9005 41.0014 35.7208C41.1807 35.5311 41.357 35.3376 41.5295 35.1409H36.4615C36.5276 35.0655 36.5931 34.9897 36.6581 34.9133C36.8117 34.7329 36.9624 34.5499 37.11 34.3643C37.1772 34.2798 37.2438 34.1947 37.3097 34.1091C37.4486 33.9289 37.5846 33.7464 37.7178 33.5615H42.7859C43.4148 32.6886 43.9792 31.7647 44.472 30.7976H39.4039C39.6485 30.3174 39.8758 29.8264 40.0843 29.3253C40.0935 29.3031 40.1027 29.2809 40.1119 29.2587C40.1174 29.2452 40.123 29.2318 40.1285 29.2183H45.1966C45.5622 28.326 45.8693 27.4029 46.1129 26.4544H41.0448L41.0579 26.4033C41.09 26.2767 41.121 26.1497 41.1509 26.0222C41.1918 25.848 41.2306 25.673 41.2672 25.4974C41.2806 25.4321 41.2938 25.3667 41.3068 25.3012C41.3289 25.1893 41.3502 25.077 41.3706 24.9645C41.3761 24.9347 41.3814 24.9049 41.3867 24.875H46.4548C46.5475 24.3506 46.6212 23.8193 46.6751 23.2825C46.7139 22.8946 46.7425 22.5044 46.7602 22.1111H41.6921ZM20.8573 39.0893C30.6539 39.0893 38.5957 31.046 38.5957 21.124C38.5957 11.2021 30.6539 3.15873 20.8573 3.15873C11.0606 3.15873 3.11884 11.2021 3.11884 21.124C3.11884 31.046 11.0606 39.0893 20.8573 39.0893Z" fill="#7B61FF"/>
<path d="M16.7557 30.9128V26.9411H14.3926V24.9281H16.7557V22.6974H14.3926V20.6843H16.7557V11.7344H23.4002C24.8273 11.7344 26.0321 11.9701 27.0144 12.4417C28.0152 12.9132 28.7659 13.5661 29.2663 14.4003C29.7853 15.2346 30.0447 16.2139 30.0447 17.3383C30.0447 18.4627 29.7853 19.4239 29.2663 20.2219C28.7473 21.0198 28.006 21.6364 27.0422 22.0717C26.0784 22.4888 24.9108 22.6974 23.5392 22.6974H20.3421V24.9281H24.8181V26.9411H20.3421V30.9128H16.7557ZM20.2865 20.6843H23.0388C24.2435 20.6843 25.161 20.4213 25.7911 19.8954C26.4398 19.3695 26.7642 18.5715 26.7642 17.5015C26.7642 16.4134 26.4398 15.6154 25.7911 15.1076C25.161 14.5817 24.2435 14.3187 23.0388 14.3187H20.2865V20.6843Z" fill="#2DBE64"/>
<path d="M58.8457 29.8158L60.3546 26.3152C61.2599 26.8584 62.2255 27.2809 63.2516 27.5826C64.2977 27.8643 65.3137 28.0252 66.2995 28.0655C67.3054 28.0856 68.2107 27.985 69.0154 27.7637C69.8403 27.5424 70.4941 27.2105 70.9769 26.7679C71.4799 26.3253 71.7314 25.762 71.7314 25.0779C71.7314 24.2732 71.3994 23.6797 70.7355 23.2975C70.0716 22.8951 69.1864 22.6939 68.0799 22.6939H62.9196V19.0123H67.7178C68.7036 19.0123 69.4681 18.8111 70.0113 18.4088C70.5746 18.0064 70.8562 17.4532 70.8562 16.749C70.8562 16.1455 70.655 15.6627 70.2527 15.3005C69.8503 14.9183 69.2971 14.6366 68.5929 14.4556C67.9089 14.2745 67.1344 14.194 66.2693 14.2141C65.4042 14.2343 64.509 14.3751 63.5835 14.6366C62.6581 14.8982 61.7729 15.2603 60.9279 15.723L59.4492 11.9509C60.8173 11.2467 62.2557 10.7639 63.7646 10.5024C65.2936 10.2207 66.7622 10.1503 68.1705 10.2911C69.5988 10.4118 70.8864 10.7337 72.0331 11.2568C73.1799 11.7597 74.0952 12.4236 74.7793 13.2485C75.4633 14.0733 75.8053 15.0491 75.8053 16.1757C75.8053 17.1816 75.5437 18.0768 75.0207 18.8614C74.4976 19.646 73.7633 20.2496 72.8177 20.6721L72.7757 20.6911C72.9879 20.7663 73.1931 20.8505 73.3911 20.9437C74.4372 21.4064 75.242 22.0602 75.8053 22.9052C76.3887 23.73 76.6804 24.6856 76.6804 25.772C76.6804 26.7779 76.4088 27.6832 75.8656 28.488C75.3426 29.2726 74.6183 29.9365 73.6929 30.4797C72.7674 31.0228 71.7112 31.4252 70.5243 31.6867C69.3373 31.9483 68.0699 32.0589 66.7219 32.0187C65.3942 31.9785 64.0563 31.7873 62.7084 31.4453C61.3605 31.0832 60.0729 30.54 58.8457 29.8158Z" fill="#06101A"/>
<path fill-rule="evenodd" clip-rule="evenodd" d="M92.2594 16.9603C93.6274 18.1271 94.3114 19.9478 94.3114 22.4223V31.6867H89.9056V29.6693C89.5511 30.2653 89.0683 30.7466 88.4571 31.1134C87.5517 31.6566 86.3849 31.9282 84.9565 31.9282C83.6891 31.9282 82.6027 31.7169 81.6974 31.2944C80.7921 30.8518 80.098 30.2584 79.6152 29.514C79.1323 28.7696 78.8909 27.9347 78.8909 27.0093C78.8909 26.0436 79.1223 25.1986 79.585 24.4744C80.0678 23.7501 80.8222 23.1868 81.8483 22.7845C82.8743 22.362 84.2121 22.1508 85.8618 22.1508H89.6038C89.6038 21.1448 89.292 20.3602 88.6683 19.7969C88.0648 19.2336 87.1293 18.952 85.8618 18.952C84.9967 18.952 84.1417 19.0928 83.2968 19.3744C82.4719 19.636 81.7678 19.9981 81.1844 20.4608L79.4944 17.1715C80.3796 16.5479 81.4459 16.065 82.6932 15.723C83.9405 15.381 85.208 15.21 86.4955 15.21C88.9701 15.21 90.8914 15.7934 92.2594 16.9603ZM84.0814 25.4401C84.5039 25.0779 85.2683 24.8969 86.3748 24.8969H89.6038V26.5566C89.3221 27.2809 88.8695 27.8341 88.2458 28.2164C87.6222 28.5785 86.918 28.7596 86.1334 28.7596C85.3086 28.7596 84.6547 28.5886 84.1719 28.2465C83.7092 27.8844 83.4778 27.4016 83.4778 26.798C83.4778 26.2548 83.679 25.8022 84.0814 25.4401Z" fill="#06101A"/>
<path fill-rule="evenodd" clip-rule="evenodd" d="M101.449 30.8418C102.857 31.566 104.487 31.9282 106.338 31.9282C107.806 31.9282 109.104 31.7069 110.23 31.2643C111.357 30.8015 112.292 30.1477 113.037 29.3027L110.532 26.5868C109.989 27.1099 109.385 27.5022 108.722 27.7637C108.078 28.0252 107.323 28.156 106.458 28.156C105.493 28.156 104.648 27.985 103.923 27.643C103.219 27.2809 102.666 26.7679 102.264 26.104C102.055 25.7314 101.904 25.3291 101.809 24.8969H114.093C114.113 24.6957 114.133 24.4845 114.153 24.2632C114.174 24.0217 114.184 23.8105 114.184 23.6294C114.184 21.8792 113.811 20.3804 113.067 19.133C112.323 17.8656 111.307 16.8999 110.019 16.236C108.752 15.552 107.323 15.21 105.734 15.21C104.084 15.21 102.606 15.5721 101.298 16.2964C99.9902 17.0005 98.9542 17.9863 98.1897 19.2537C97.4453 20.5011 97.0731 21.9395 97.0731 23.5691C97.0731 25.1785 97.4554 26.617 98.2199 27.8844C98.9843 29.1317 100.061 30.1175 101.449 30.8418ZM101.755 22.1508C101.833 21.6478 101.983 21.1952 102.203 20.7928C102.545 20.149 103.018 19.6561 103.622 19.3141C104.245 18.952 104.959 18.7709 105.764 18.7709C106.569 18.7709 107.273 18.952 107.877 19.3141C108.48 19.6561 108.953 20.1389 109.295 20.7626C109.522 21.1766 109.674 21.6393 109.75 22.1508H101.755Z" fill="#06101A"/>
<path d="M126.785 30.1175L122.047 21.941V31.6867H117.792V15.4514H122.711L127.889 24.838L133.424 15.4514H137.83L137.89 31.6867H133.635V21.9762L128.777 30.1175H126.785Z" fill="#06101A"/>
<path d="M150.789 22.8146C151.312 22.6839 151.815 22.5068 152.298 22.2832V15.4514H157.005V31.6867H152.298V25.6425C151.723 25.9261 151.1 26.1603 150.427 26.3454C149.622 26.5667 148.737 26.6773 147.771 26.6773C145.639 26.6773 143.999 26.1945 142.852 25.2288C141.705 24.243 141.132 22.6839 141.132 20.5514V15.4514H145.84V20.2496C145.84 21.2555 146.101 21.9797 146.624 22.4223C147.147 22.8448 147.882 23.0561 148.827 23.0561C149.511 23.0561 150.165 22.9756 150.789 22.8146Z" fill="#06101A"/>
<path d="M173.747 22.03L165.871 31.6867H161.525V15.4514H166.203V25.1081L174.109 15.4514H178.425V31.6867H173.747V22.03Z" fill="#06101A"/>
<path d="M190.102 25.5306L194.448 31.6867H200L193.935 23.2415L199.608 15.4514H194.598L190.2 21.7584H187.658V15.4514H182.95V31.6867H187.658V25.5306H190.102Z" fill="#06101A"/>
</svg>
