<?xml version="1.0" encoding="utf-8"?><svg xmlns="http://www.w3.org/2000/svg" xmlns:xlink="http://www.w3.org/1999/xlink"><symbol viewBox="0 0 14 14" id="arrow" xmlns="http://www.w3.org/2000/svg"><path fill-rule="evenodd" clip-rule="evenodd" d="M-2.87481e-07 5.9121L9.8593 5.9121L5.51461 1.53542L7.05115 1.17182e-06L14 7L7.05114 14L5.5146 12.4646L9.8593 8.0879L-2.57387e-07 8.0879L-2.87481e-07 5.9121Z"/></symbol><symbol viewBox="0 0 12 12" id="calendar" xmlns="http://www.w3.org/2000/svg"><path d="M10.6396 5.68965H1.36045M3.85906 0.75L3.85906 3.14977M8.2579 0.75V3.14977M2.55362 11.25H9.44634C10.2748 11.25 10.9463 10.5785 10.9463 9.75004V3.37759C10.9463 2.54916 10.2748 1.87759 9.44633 1.87759H2.55362C1.72519 1.87759 1.05362 2.54916 1.05362 3.37759V9.75004C1.05362 10.5785 1.72519 11.25 2.55362 11.25Z"/></symbol><symbol viewBox="0 0 16 14" id="check" xmlns="http://www.w3.org/2000/svg"><path d="M14.125 3.24609L5.95833 10.7519L1.875 6.99899"/></symbol><symbol viewBox="0 0 25 25" id="close" xmlns="http://www.w3.org/2000/svg"><path d="M4.35513 4.35513C4.82863 3.88162 5.59633 3.88162 6.06984 4.35513L20.6449 18.9302C21.1184 19.4037 21.1184 20.1714 20.6449 20.6449C20.1714 21.1184 19.4037 21.1184 18.9302 20.6449L4.35513 6.06984C3.88162 5.59633 3.88162 4.82863 4.35513 4.35513Z"/><path d="M20.6449 4.35513C21.1184 4.82863 21.1184 5.59633 20.6449 6.06984L6.06984 20.6449C5.59633 21.1184 4.82863 21.1184 4.35513 20.6449C3.88162 20.1714 3.88162 19.4037 4.35513 18.9302L18.9302 4.35513C19.4037 3.88162 20.1714 3.88162 20.6449 4.35513Z"/></symbol><symbol viewBox="0 0 12 10" id="drop" xmlns="http://www.w3.org/2000/svg"><path d="M10.375 3.25781L6 7.50098L1.625 3.25781"/></symbol><symbol viewBox="0 0 17 17" id="edit" xmlns="http://www.w3.org/2000/svg"><path d="M3.1452 11.2311L12.7846 1.58198C13.3933 0.972674 14.3802 0.972675 14.9888 1.58198L15.5435 2.13719C16.1522 2.74649 16.1522 3.73436 15.5435 4.34366L14.5462 5.34197M3.1452 11.2311L2 15.125L5.90409 13.9928M3.1452 11.2311C4.68162 11.4027 5.73749 12.4271 5.90409 13.9928M5.90409 13.9928L14.5462 5.34197M14.5462 5.34197L15.289 6.08552C15.289 6.08552 15.9956 6.76033 15.289 7.46766L12.0808 10.6791"/></symbol><symbol viewBox="0 0 13 12" id="eye" xmlns="http://www.w3.org/2000/svg"><path d="M0.5 6.375C0.5 6.375 2.75 2.25 6.5 2.25C10.25 2.25 12.5 6.375 12.5 6.375C12.5 6.375 10.25 10.5 6.5 10.5C2.75 10.5 0.5 6.375 0.5 6.375ZM6.5 9C7.19619 9 7.86387 8.72344 8.35616 8.23116C8.84844 7.73887 9.125 7.07119 9.125 6.375C9.125 5.67881 8.84844 5.01113 8.35616 4.51884C7.86387 4.02656 7.19619 3.75 6.5 3.75C5.80381 3.75 5.13613 4.02656 4.64384 4.51884C4.15156 5.01113 3.875 5.67881 3.875 6.375C3.875 7.07119 4.15156 7.73887 4.64384 8.23116C5.13613 8.72344 5.80381 9 6.5 9Z"/></symbol><symbol viewBox="0 0 16 17" id="mail" xmlns="http://www.w3.org/2000/svg"><path d="M3.82466 6.43144L8 9.7926L12.305 6.43144M2.6391 13.7926H13.3609C14.2662 13.7926 15 13.0588 15 12.1535V4.92816C15 4.02291 14.2661 3.28906 13.3609 3.28906H2.6391C1.73385 3.28906 1 4.02291 1 4.92816L1 12.1535C1 13.0588 1.73385 13.7926 2.6391 13.7926Z"/></symbol><symbol viewBox="0 0 25 25" id="menu" xmlns="http://www.w3.org/2000/svg"><rect y="4" width="25" height="3" rx="1.5"/><rect x="14" y="11" width="11" height="3" rx="1.5"/><rect x="9" y="18" width="16" height="3" rx="1.5"/></symbol><symbol viewBox="0 0 17 17" id="phone" xmlns="http://www.w3.org/2000/svg"><path d="M4 2.27361C4 1.63925 4.51343 1.125 5.14677 1.125H11.8532C12.4866 1.125 13 1.63925 13 2.27361V9.40385V13.9764C13 14.6108 12.4866 15.125 11.8532 15.125H7.2032H5.14677C4.51343 15.125 4 14.6108 4 13.9764L4 12.1635L4 2.27361Z"/><circle cx="8.50024" cy="11.2454" r="1"/></symbol><symbol viewBox="0 0 17 17" id="settings" xmlns="http://www.w3.org/2000/svg"><path d="M1.5 3.88867H3.40451M15.5 3.88867H8.50011"/><path d="M1.5 12.2266H8.96335M15.5 12.2266H13.5957"/><path fill-rule="evenodd" clip-rule="evenodd" d="M5.72048 6.20463C6.99967 6.20463 8.03666 5.16764 8.03666 3.88845C8.03666 2.60926 6.99967 1.57227 5.72048 1.57227C4.44129 1.57227 3.4043 2.60926 3.4043 3.88845C3.4043 5.16764 4.44129 6.20463 5.72048 6.20463Z"/><path fill-rule="evenodd" clip-rule="evenodd" d="M11.2796 14.5425C12.5587 14.5425 13.5957 13.5055 13.5957 12.2263C13.5957 10.9472 12.5587 9.91016 11.2796 9.91016C10.0004 9.91016 8.96338 10.9472 8.96338 12.2263C8.96338 13.5055 10.0004 14.5425 11.2796 14.5425Z"/></symbol><symbol viewBox="0 0 14 15" id="user" xmlns="http://www.w3.org/2000/svg"><path d="M12.9119 13.7139V13.697C12.4381 12.5142 11.6196 11.5036 10.5644 10.7982C9.50917 10.0928 8.2666 9.72564 7.00016 9.74512C5.73384 9.72556 4.49126 10.0925 3.43604 10.7978C2.38081 11.503 1.56239 12.5134 1.08838 13.696V13.7139M9.75192 4.23621C9.75164 4.78419 9.59009 5.31978 9.28756 5.77528C8.98503 6.23078 8.55515 6.58572 8.05232 6.79524C7.54949 7.00475 6.9963 7.05942 6.46261 6.95235C5.92892 6.84527 5.43871 6.58126 5.05402 6.19368C4.66932 5.8061 4.40743 5.31236 4.30136 4.77489C4.1953 4.23742 4.24986 3.68034 4.45817 3.17409C4.66648 2.66785 5.01913 2.23517 5.47162 1.93076C5.9241 1.62634 6.45605 1.46387 7.00022 1.46387C7.3617 1.46387 7.71956 1.53558 8.0535 1.67492C8.38745 1.81426 8.69089 2.01849 8.94643 2.27595C9.20197 2.5334 9.40474 2.83903 9.54295 3.17538C9.68115 3.51173 9.7521 3.8722 9.75192 4.23621Z"/></symbol></svg>