<svg width="17" height="17" viewBox="0 0 17 17" fill="none" xmlns="http://www.w3.org/2000/svg">
<circle opacity="0.3" cx="4.89508" cy="4.89508" r="4.89508" transform="matrix(-1 0 0 1 16.375 3.35352)" fill="white"/>
<circle opacity="0.8" cx="4.89508" cy="4.89508" r="4.89508" transform="matrix(-1 0 0 1 10.4155 3.35352)" fill="white"/>
<g opacity="0.1">
<path fill-rule="evenodd" clip-rule="evenodd" d="M8.50006 4.36719C9.66478 5.26202 10.4155 6.66897 10.4155 8.25127C10.4155 9.83357 9.66478 11.2405 8.50006 12.1354C7.33534 11.2405 6.5846 9.83357 6.5846 8.25127C6.5846 6.66897 7.33534 5.26202 8.50006 4.36719Z" fill="white"/>
<path fill-rule="evenodd" clip-rule="evenodd" d="M8.50006 12.1354C7.33534 11.2405 6.5846 9.83357 6.5846 8.25127C6.5846 6.66897 7.33534 5.26202 8.50006 4.36719C9.66478 5.26202 10.4155 6.66897 10.4155 8.25127C10.4155 9.83357 9.66478 11.2405 8.50006 12.1354Z" fill="white"/>
</g>
</svg>
