<svg width="22" height="14" viewBox="0 0 22 14" fill="none" xmlns="http://www.w3.org/2000/svg">
<g clip-path="url(#clip0_3868_4227)">
<path opacity="0.5" d="M4.85496 0.6875H10.0868C10.8171 0.6875 11.2713 1.28277 11.101 2.01551L8.66518 12.4733C8.49328 13.2035 7.76207 13.7993 7.03125 13.7993H1.79992C1.07062 13.7993 0.61537 13.2035 0.785739 12.4733L3.22255 2.01551C3.39292 1.28277 4.12375 0.6875 4.85496 0.6875Z" fill="white"/>
<path opacity="0.9" d="M9.65102 0.6875H15.6675C16.3977 0.6875 16.0684 1.28277 15.8967 2.01551L13.4612 12.4733C13.2904 13.2035 13.3437 13.7993 12.6119 13.7993H6.59547C5.86375 13.7993 5.41092 13.2035 5.58282 12.4733L8.0181 2.01551C8.19102 1.28277 8.92032 0.6875 9.65102 0.6875Z" fill="white"/>
<path d="M15.4286 0.6875H20.6604C21.3918 0.6875 21.846 1.28277 21.6742 2.01551L19.2388 12.4733C19.0669 13.2035 18.3352 13.7993 17.604 13.7993H12.3746C11.6429 13.7993 11.189 13.2035 11.3604 12.4733L13.7962 2.01551C13.9666 1.28277 14.6969 0.6875 15.4286 0.6875Z" fill="white"/>
<path d="M6.22074 4.038C5.68273 4.04348 5.52384 4.038 5.47308 4.02601C5.45357 4.11872 5.09052 5.79346 5.0895 5.79486C5.01133 6.13369 4.95445 6.37522 4.76126 6.53117C4.65159 6.62184 4.52355 6.66558 4.37512 6.66558C4.13653 6.66558 3.99753 6.54712 3.97419 6.32242L3.96973 6.24527C3.96973 6.24527 4.04241 5.79142 4.04241 5.78887C4.04241 5.78887 4.42345 4.26269 4.49167 4.06095C4.49524 4.04947 4.49627 4.04348 4.49716 4.038C3.75549 4.0445 3.62402 4.038 3.61496 4.02601C3.60999 4.04246 3.59163 4.13708 3.59163 4.13708L3.20256 5.85722L3.16915 6.00311L3.10449 6.48029C3.10449 6.62184 3.13229 6.73738 3.18764 6.83506C3.36489 7.14481 3.87052 7.19123 4.15655 7.19123C4.52508 7.19123 4.8708 7.11293 5.10442 6.96998C5.50994 6.73036 5.61603 6.35583 5.71065 6.023L5.75452 5.85225C5.75452 5.85225 6.14703 4.26715 6.21373 4.06095C6.21628 4.04947 6.2173 4.04348 6.22074 4.038ZM7.55624 5.31671C7.46162 5.31671 7.2887 5.33966 7.13338 5.41579C7.07701 5.44474 7.02371 5.47815 6.96747 5.51143L7.01823 5.32819L6.99043 5.29732C6.66104 5.36402 6.58733 5.37295 6.28306 5.41579L6.25756 5.43275C6.22223 5.72567 6.19086 5.9459 6.0599 6.52166C6.01004 6.73386 5.95826 6.94809 5.90636 7.15978L5.92039 7.18669C6.23218 7.17024 6.3268 7.17024 6.59779 7.1747L6.61972 7.15085C6.65415 6.97449 6.65861 6.93317 6.73487 6.57599C6.77071 6.40664 6.84543 6.03453 6.88229 5.90203C6.95 5.87066 7.01682 5.8398 7.08058 5.8398C7.23246 5.8398 7.21397 5.9723 7.20811 6.02509C7.2016 6.11372 7.14626 6.40319 7.08951 6.65173L7.05164 6.81216C7.02524 6.93062 6.99629 7.04578 6.96989 7.16322L6.98137 7.18669C7.2887 7.17024 7.38243 7.17024 7.64487 7.1747L7.67573 7.15085C7.72317 6.87541 7.73707 6.8017 7.82123 6.40064L7.86357 6.21637C7.94582 5.85574 7.98714 5.67288 7.9249 5.52393C7.8591 5.35701 7.70123 5.31671 7.55624 5.31671ZM9.04814 5.69429C8.88479 5.72566 8.7806 5.74657 8.67705 5.76009C8.5744 5.77654 8.47429 5.79146 8.31642 5.81339L8.30393 5.82474L8.29245 5.8338C8.276 5.95137 8.26452 6.05301 8.24272 6.17249C8.22422 6.29606 8.19579 6.43646 8.1495 6.6382C8.11366 6.79263 8.09517 6.84645 8.07477 6.90077C8.05488 6.9551 8.03294 7.00789 7.99264 7.15977L8.00208 7.1738L8.00999 7.18667C8.15753 7.17966 8.25406 7.17469 8.35328 7.1738C8.45236 7.17022 8.55502 7.1738 8.71391 7.17469L8.72781 7.16334L8.74273 7.15084C8.76568 7.01388 8.76912 6.97703 8.78315 6.91021C8.79705 6.83854 8.82103 6.73933 8.87981 6.47434C8.90761 6.34988 8.9386 6.2258 8.96742 6.09879C8.99739 5.97228 9.02876 5.8477 9.0586 5.72323L9.05414 5.70819L9.04814 5.69429ZM9.05162 5.18519C8.90319 5.09759 8.64266 5.12539 8.46732 5.24641C8.29249 5.365 8.27259 5.53333 8.42052 5.62208C8.5664 5.70727 8.82795 5.68189 9.00176 5.55985C9.17621 5.43871 9.19802 5.27191 9.05162 5.18519ZM9.94931 7.21413C10.2496 7.21413 10.5575 7.13137 10.7892 6.88576C10.9674 6.68657 11.0492 6.39021 11.0775 6.26817C11.1697 5.86367 11.0979 5.67482 11.0077 5.55979C10.8708 5.38445 10.6288 5.32821 10.3777 5.32821C10.2267 5.32821 9.86706 5.34313 9.58613 5.60213C9.38439 5.78895 9.29117 6.04246 9.23494 6.28552C9.17819 6.53316 9.1129 6.97898 9.52288 7.14489C9.64938 7.19921 9.83174 7.21413 9.94931 7.21413ZM9.92585 6.30401C9.99509 5.9977 10.0768 5.74062 10.2855 5.74062C10.4489 5.74062 10.4608 5.9319 10.3881 6.23923C10.3751 6.30745 10.3154 6.56109 10.2347 6.6691C10.1783 6.7488 10.1116 6.79713 10.0379 6.79713C10.016 6.79713 9.88555 6.79713 9.88351 6.60343C9.88249 6.50779 9.902 6.41011 9.92585 6.30401ZM11.8282 7.17474L11.8517 7.15089C11.885 6.97453 11.8905 6.93309 11.9642 6.57602C12.001 6.40668 12.0773 6.03457 12.1131 5.90207C12.1809 5.87057 12.2466 5.83971 12.3124 5.83971C12.4633 5.83971 12.4449 5.97221 12.4389 6.025C12.4334 6.11376 12.3781 6.40311 12.3203 6.65164L12.2845 6.81207C12.2571 6.93066 12.2272 7.04569 12.2008 7.16326L12.2123 7.18673C12.5207 7.17028 12.6108 7.17028 12.8748 7.17474L12.9067 7.15089C12.953 6.87532 12.9655 6.80161 13.0522 6.40068L13.0935 6.21629C13.1761 5.85565 13.218 5.67291 13.1567 5.52397C13.089 5.35704 12.9301 5.31675 12.7872 5.31675C12.6924 5.31675 12.5186 5.33957 12.3642 5.41583C12.309 5.44478 12.2536 5.47806 12.1993 5.51147L12.2466 5.32822L12.2212 5.29724C11.892 5.36406 11.8167 5.37298 11.5129 5.41583L11.4895 5.43279C11.4527 5.72571 11.4227 5.94581 11.2917 6.5217C11.2419 6.7339 11.1901 6.94813 11.1383 7.15982L11.1522 7.18673C11.4645 7.17028 11.5577 7.17028 11.8282 7.17474ZM14.0937 7.18666C14.1131 7.09204 14.2282 6.5312 14.2293 6.5312C14.2293 6.5312 14.3273 6.11969 14.3333 6.10477C14.3333 6.10477 14.3642 6.06192 14.395 6.04496H14.4404C14.8688 6.04496 15.3525 6.04496 15.7316 5.76607C15.9896 5.57479 16.1659 5.29233 16.2446 4.94904C16.265 4.86487 16.2801 4.76477 16.2801 4.66466C16.2801 4.53319 16.2537 4.40312 16.1774 4.30148C15.9841 4.03101 15.5991 4.02603 15.1547 4.02399C15.1533 4.02399 14.9356 4.02603 14.9356 4.02603C14.3667 4.03305 14.1386 4.03101 14.0449 4.01953C14.037 4.06098 14.022 4.13468 14.022 4.13468C14.022 4.13468 13.8183 5.07911 13.8183 5.08064C13.8183 5.08064 13.3306 7.0886 13.3077 7.18322C13.8044 7.17723 14.008 7.17723 14.0937 7.18666ZM14.4713 5.50899C14.4713 5.50899 14.688 4.56647 14.6869 4.57004L14.694 4.52171L14.697 4.48486L14.7836 4.49378C14.7836 4.49378 15.2304 4.53217 15.2409 4.53319C15.4173 4.60141 15.4899 4.77727 15.4392 5.0068C15.3929 5.21658 15.2568 5.39294 15.082 5.47813C14.938 5.5503 14.7617 5.5563 14.5799 5.5563H14.4624L14.4713 5.50899ZM15.8203 6.32147C15.763 6.56554 15.6972 7.01136 16.1052 7.17025C16.2352 7.22559 16.3518 7.24204 16.4703 7.23605C16.5954 7.22929 16.7113 7.16655 16.8186 7.07627C16.809 7.11338 16.7993 7.15048 16.7896 7.18772L16.8081 7.21157C17.1015 7.1992 17.1925 7.1992 17.5105 7.20162L17.5393 7.17969C17.5857 6.90679 17.6294 6.6418 17.7501 6.11973C17.8089 5.86966 17.8675 5.62201 17.9278 5.37296L17.9184 5.34554C17.5902 5.40637 17.5024 5.41938 17.1867 5.46414L17.1627 5.48365C17.1595 5.50902 17.1562 5.53338 17.1531 5.55774C17.104 5.47842 17.0329 5.4107 16.9231 5.36849C16.7827 5.31328 16.4529 5.38444 16.1694 5.64254C15.9702 5.82681 15.8746 6.0793 15.8203 6.32147ZM16.5097 6.33639C16.5799 6.03556 16.6606 5.78103 16.8698 5.78103C17.002 5.78103 17.0716 5.90307 17.0575 6.11118C17.0463 6.16308 17.0342 6.21779 17.0197 6.27964C16.9988 6.36903 16.9761 6.45766 16.9541 6.54641C16.9316 6.60711 16.9055 6.66437 16.8768 6.7025C16.823 6.77876 16.6949 6.82607 16.6212 6.82607C16.6003 6.82607 16.4713 6.82607 16.4668 6.63581C16.4658 6.54106 16.4853 6.4435 16.5097 6.33639ZM20.1097 5.34311L20.0843 5.31416C19.7595 5.37996 19.7007 5.39042 19.4023 5.43071L19.3804 5.45265C19.3793 5.45622 19.3785 5.4617 19.3769 5.46667L19.3759 5.4617C19.1538 5.97421 19.1603 5.86365 18.9794 6.26713C18.9784 6.24877 18.9784 6.23729 18.9774 6.21778L18.9321 5.34311L18.9037 5.31416C18.5635 5.37996 18.5554 5.39042 18.2412 5.43071L18.2167 5.45265C18.2133 5.4631 18.2133 5.47458 18.2112 5.48708L18.2133 5.49154C18.2526 5.69226 18.2431 5.6475 18.2825 5.96426C18.3009 6.11971 18.3254 6.27605 18.3437 6.42959C18.3747 6.68655 18.3921 6.81305 18.4299 7.20518C18.2178 7.55535 18.1675 7.68785 17.9632 7.99518L17.9646 7.99824L17.8208 8.22574C17.8043 8.24971 17.7894 8.26616 17.7685 8.27317C17.7455 8.28452 17.7157 8.28656 17.6743 8.28656H17.5946L17.4761 8.68061L17.8825 8.68762C18.1211 8.6866 18.2711 8.57502 18.3518 8.42505L18.6073 7.98714H18.6032L18.6302 7.95628C18.8021 7.58621 20.1097 5.34311 20.1097 5.34311ZM15.8203 10.5183H15.6479L16.286 8.40765H16.4977L16.5649 8.19022L16.5714 8.432C16.5635 8.58146 16.681 8.71395 16.9899 8.69202H17.3471L17.47 8.28561H17.3356C17.2583 8.28561 17.2225 8.2661 17.227 8.22427L17.2205 7.97828H16.559V7.97955C16.3451 7.98402 15.7065 8.00009 15.5772 8.03452C15.4207 8.07481 15.2559 8.19341 15.2559 8.19341L15.3206 7.97573H14.7019L14.573 8.40765L13.9263 10.5505H13.8008L13.6778 10.954H14.9101L14.8688 11.0885H15.4761L15.5164 10.954H15.6867L15.8203 10.5183ZM15.3146 8.8365C15.2156 8.86392 15.0312 8.94706 15.0312 8.94706L15.1952 8.40765H15.6867L15.5682 8.80067C15.5682 8.80067 15.4163 8.80959 15.3146 8.8365ZM15.3241 9.60712C15.3241 9.60712 15.1696 9.6265 15.068 9.64945C14.9679 9.6798 14.7802 9.77544 14.7802 9.77544L14.9495 9.21409H15.4437L15.3241 9.60712ZM15.0486 10.5232H14.5555L14.6985 10.0495H15.1901L15.0486 10.5232ZM16.2362 9.21409H16.947L16.8449 9.54488H16.1246L16.0165 9.90654H16.6467L16.1695 10.5784C16.1361 10.6278 16.1061 10.6453 16.0728 10.6592C16.0394 10.6761 15.9956 10.696 15.9448 10.696H15.77L15.6498 11.0921H16.1071C16.3448 11.0921 16.4852 10.984 16.5889 10.842L16.9161 10.3942L16.9864 10.8489C17.0013 10.9341 17.0625 10.984 17.104 11.0034C17.1498 11.0263 17.1971 11.0657 17.2639 11.0716C17.3356 11.0746 17.3873 11.0771 17.4218 11.0771H17.6465L17.7814 10.6338H17.6927C17.6419 10.6338 17.5543 10.6252 17.5393 10.6093C17.5244 10.5899 17.5244 10.5601 17.5164 10.5147L17.4451 10.0589H17.1532L17.2812 9.90654H18.0001L18.1106 9.54488H17.4451L17.5488 9.21409H18.2123L18.3353 8.80615H16.3572L16.2362 9.21409ZM10.2327 10.6153L10.3986 10.0634H11.0805L11.205 9.65293H10.5226L10.6267 9.31322H11.2937L11.4172 8.91573H9.74849L9.62747 9.31322H10.0066L9.90547 9.65293H9.52533L9.39934 10.0704H9.77833L9.55721 10.8006C9.52737 10.8973 9.57124 10.9341 9.59904 10.979C9.62747 11.0228 9.65629 11.0517 9.72108 11.0682C9.7879 11.0831 9.83368 11.092 9.89591 11.092H10.6646L10.8016 10.6373L10.4608 10.6841C10.395 10.6841 10.2128 10.6762 10.2327 10.6153ZM10.3109 7.97324L10.1381 8.28554C10.1011 8.35377 10.0678 8.3961 10.0379 8.41562C10.0115 8.43207 9.9592 8.43895 9.88345 8.43895H9.79329L9.67278 8.83848H9.9722C10.1162 8.83848 10.2267 8.78568 10.2795 8.75929C10.3363 8.72894 10.3512 8.74628 10.3951 8.70394L10.4962 8.61633H11.4312L11.5553 8.20036H10.8708L10.9903 7.97324H10.3109ZM11.6912 10.6234C11.6753 10.6004 11.6868 10.56 11.7111 10.4758L11.9667 9.62997H12.8758C13.0083 9.62805 13.1039 9.62652 13.1662 9.62206C13.233 9.61505 13.3057 9.5912 13.3849 9.54835C13.4666 9.50347 13.5084 9.45615 13.5438 9.40183C13.5832 9.34763 13.6464 9.22904 13.7007 9.04617L14.022 7.97575L13.0786 7.98124C13.0786 7.98124 12.7881 8.02409 12.6602 8.0714C12.5311 8.12419 12.3467 8.27161 12.3467 8.27161L12.4319 7.97818H11.8491L11.0332 10.6841C11.0043 10.7891 10.9849 10.8654 10.9804 10.9112C10.9789 10.9605 11.0427 11.0094 11.084 11.0462C11.1328 11.0831 11.205 11.0771 11.2743 11.0831C11.3471 11.0886 11.4506 11.092 11.5936 11.092H12.0414L12.1789 10.6278L11.778 10.6657C11.7351 10.6657 11.7041 10.6427 11.6912 10.6234ZM12.1316 9.05867H13.0865L13.0258 9.24893C13.0172 9.2534 12.9968 9.2395 12.8996 9.25097H12.0728L12.1316 9.05867ZM12.3229 8.42055H13.2858L13.2165 8.64971C13.2165 8.64971 12.7627 8.64524 12.69 8.65863C12.3702 8.71398 12.1834 8.88486 12.1834 8.88486L12.3229 8.42055ZM13.0471 9.88607C13.0392 9.91451 13.0267 9.93185 13.0093 9.94486C12.9899 9.95735 12.9585 9.96182 12.9117 9.96182H12.7756L12.7837 9.73011H12.2177L12.1948 10.8629C12.1939 10.9446 12.2018 10.9919 12.2616 11.0298C12.3214 11.0771 12.5057 11.0831 12.7537 11.0831H13.1083L13.2364 10.6591L12.9276 10.6761L12.825 10.6821C12.811 10.6761 12.7976 10.6706 12.7827 10.6557C12.7696 10.6428 12.7477 10.6507 12.7513 10.5689L12.7537 10.2786L13.0775 10.2652C13.2523 10.2652 13.327 10.2083 13.3908 10.1541C13.4516 10.1022 13.4715 10.0425 13.4945 9.96182L13.5488 9.70473H13.1039L13.0471 9.88607Z" fill="#8ABF31"/>
</g>
<defs>
<clipPath id="clip0_3868_4227">
<rect width="21" height="13.125" fill="white" transform="translate(0.75 0.6875)"/>
</clipPath>
</defs>
</svg>
