<svg width="16" height="17" viewBox="0 0 16 17" fill="none" xmlns="http://www.w3.org/2000/svg">
<g clip-path="url(#clip0_3868_4226)">
<path d="M0.1875 6.10226H1.66406C1.7983 6.10226 2.20099 6.05752 2.37997 6.68394C2.5142 7.08664 2.69318 7.71306 2.96165 8.65269H3.05114C3.3196 7.66831 3.54332 6.99715 3.63281 6.68394C3.81179 6.05752 4.25923 6.10226 4.43821 6.10226H5.82528V10.3977H4.39347V7.84729H4.30398L3.54332 10.3977H2.46946L1.70881 7.84729H1.57457V10.3977H0.1875M6.40696 6.10226H7.83878V8.65269H7.97301L8.91264 6.5497C9.09162 6.14701 9.49432 6.10226 9.49432 6.10226H10.8366V10.3977H9.40483V7.84729H9.31534L8.37571 9.95027C8.19673 10.353 7.74929 10.3977 7.74929 10.3977H6.40696M12.7607 9.10013V10.3977H11.4183V8.1605H15.8033C15.6243 8.69743 14.9979 9.10013 14.282 9.10013" fill="white"/>
<path d="M15.893 7.89134C16.072 7.08594 15.5351 6.10156 14.3717 6.10156H11.3291C11.4186 7.04119 12.224 7.89134 13.0741 7.89134" fill="white"/>
</g>
<defs>
<clipPath id="clip0_3868_4226">
<rect width="15.75" height="15.75" fill="white" transform="translate(0.1875 0.375)"/>
</clipPath>
</defs>
</svg>
