<svg width="22" height="17" viewBox="0 0 22 17" fill="none" xmlns="http://www.w3.org/2000/svg">
<path d="M20.0255 5.11728H18.7054C18.3063 5.11728 17.9992 5.24008 17.815 5.6392L15.2975 11.3804H17.0782C17.0782 11.3804 17.3852 10.6128 17.4466 10.4286C17.6308 10.4286 19.3808 10.4286 19.6264 10.4286C19.6878 10.6435 19.8413 11.3497 19.8413 11.3497H21.4378L20.0255 5.11728ZM17.9378 9.13918C18.0914 8.77076 18.6133 7.38919 18.6133 7.38919C18.6133 7.41989 18.7668 7.02077 18.8282 6.80586L18.951 7.35849C18.951 7.35849 19.2887 8.86286 19.3501 9.16988H17.9378V9.13918Z" fill="white"/>
<path d="M15.4205 9.3236C15.4205 10.6131 14.2539 11.4727 12.4425 11.4727C11.675 11.4727 10.9381 11.3192 10.539 11.135L10.7846 9.72272L10.9995 9.81483C11.5521 10.0604 11.9206 10.1525 12.596 10.1525C13.0872 10.1525 13.6091 9.96833 13.6091 9.53851C13.6091 9.2622 13.3942 9.07799 12.7188 8.77097C12.0741 8.46396 11.2144 7.97274 11.2144 7.08239C11.2144 5.85433 12.4118 5.02539 14.1004 5.02539C14.7451 5.02539 15.2977 5.1482 15.6355 5.3017L15.3898 6.65257L15.267 6.52976C14.96 6.40696 14.5609 6.28415 13.9776 6.28415C13.3328 6.31485 13.0258 6.59117 13.0258 6.83678C13.0258 7.11309 13.3942 7.328 13.9776 7.60432C14.96 8.06484 15.4205 8.58677 15.4205 9.3236Z" fill="white"/>
<path d="M8.14445 5.11718L5.47342 11.3496H3.66203L2.12695 6.13033C3.23221 6.83646 4.15325 7.94171 4.49097 8.70925L4.67518 9.35398L6.33306 5.08647H8.14445V5.11718Z" fill="white"/>
<path d="M8.85017 5.08647H10.5388L9.4642 11.3496H7.77562L8.85017 5.08647Z" fill="white"/>
<path d="M0.4375 5.17945L0.468202 5.05664H3.10853C3.47695 5.05664 3.75326 5.17945 3.84537 5.57857L4.4287 8.3417C3.84537 6.86803 2.4945 5.67067 0.4375 5.17945Z" fill="white"/>
</svg>
